<?xml version="1.0" encoding="UTF-8"?>
<!DOCTYPE svg PUBLIC "-//W3C//DTD SVG 1.1//EN" "http://www.w3.org/Graphics/SVG/1.1/DTD/svg11.dtd">
<!-- Creator: CorelDRAW X8 -->
<svg xmlns="http://www.w3.org/2000/svg" xml:space="preserve" width="65.62mm" height="18.45mm" version="1.1" style="shape-rendering:geometricPrecision; text-rendering:geometricPrecision; image-rendering:optimizeQuality; fill-rule:evenodd; clip-rule:evenodd"
viewBox="0 0 6562 1845"
 xmlns:xlink="http://www.w3.org/1999/xlink">
 <defs>
  <style type="text/css">
   <![CDATA[
    .fil0 {fill:url(#id0)}
    .fil1 {fill:url(#id1)}
   ]]>
  </style>
  <linearGradient id="id0" gradientUnits="userSpaceOnUse" x1="80.01" y1="1792.87" x2="86.01" y2="742.79">
   <stop offset="0" style="stop-opacity:1; stop-color:#D27012"/>
   <stop offset="0.239216" style="stop-opacity:1; stop-color:#C16300"/>
   <stop offset="0.619608" style="stop-opacity:1; stop-color:#FDDA15"/>
   <stop offset="1" style="stop-opacity:1; stop-color:#F5AC13"/>
  </linearGradient>
  <linearGradient id="id1" gradientUnits="userSpaceOnUse" x1="1450.01" y1="590" x2="1450.01" y2="0">
   <stop offset="0" style="stop-opacity:1; stop-color:#CF6E0F"/>
   <stop offset="0.580392" style="stop-opacity:1; stop-color:#FDD715"/>
   <stop offset="1" style="stop-opacity:1; stop-color:#F5AD13"/>
  </linearGradient>
 </defs>
 <g id="Слой_x0020_1">
  <metadata id="CorelCorpID_0Corel-Layer"/>
  <g id="_2062349440720">
   <path class="fil0" d="M5462 1845l21 0c12,-153 -4,-369 6,-553l0 -430c0,-39 -1,-99 -10,-127 -42,0 -143,-35 -156,1 -3,8 -2,3 -4,15l0 215c-1,38 6,222 2,230 -34,-24 -17,-30 -33,-69 -31,-75 -120,-374 -133,-388 -27,-28 -119,-10 -134,-8 -13,1 -11,-3 -28,6 -3,34 0,346 8,385l-4 139c-3,100 -1,202 -5,301 -1,31 5,46 5,74 1,76 -12,106 9,202 44,2 149,3 169,-5 9,-26 7,-349 1,-403l-7 -93c28,25 38,81 49,125l83 273c31,98 29,52 31,77 1,16 -4,9 5,27 33,0 102,-5 125,6zm-3594 -1100l1 120c5,45 8,0 17,41 -23,33 -18,31 -17,85l3 228c0,17 -4,26 -4,48l2 320c7,82 -13,158 9,240 51,1 248,5 293,-4 16,-40 15,-118 3,-153 -118,-10 -125,28 -136,-22 16,-6 11,10 21,6 -11,-28 -4,-426 -4,-491l-3 -219c3,-42 15,-222 -20,-228 -14,-3 -29,5 -42,5 -20,1 -57,-11 -94,-1 -13,4 -18,4 -29,25zm382 442l2 125c10,48 38,-22 26,183 -2,33 9,49 2,81 -10,51 3,113 -1,177 -1,31 -10,64 16,71 1,0 3,1 5,1 1,0 3,1 5,1 70,13 143,5 215,2l136 5c-11,-32 35,-140 -22,-157 -46,-14 -147,12 -177,-14l0 -309c2,-18 -10,8 6,-20l188 -3c-5,-47 6,-67 -2,-162l-25 26c-3,-7 6,-16 9,-27 -59,1 -109,-6 -169,5 -1,-1 -3,-5 -3,-4 -1,1 -4,-9 -19,-16 -26,-13 7,6 -6,-1 9,-34 14,-16 15,-55 3,-86 -2,-116 6,-215l212 1c0,-42 -3,-102 3,-137 -57,-34 -65,-16 -116,-16 -29,0 -25,-6 -49,-8 -65,-6 -138,7 -209,-3l-21 17c-9,10 -5,-7 -4,22 1,25 1,49 1,74 2,58 -5,138 8,189 10,36 -4,13 -8,57 -5,50 13,83 -24,110zm4312 586l0 -358c-26,-22 -190,-255 -218,-299 -51,-78 -57,-48 -53,-150 1,-29 -3,-64 6,-82l106 -5c3,4 11,1 6,29l-4 98c38,3 128,19 157,-3l0 -251c-60,-54 -77,-41 -184,-41 -37,0 -74,3 -111,1 -58,-3 -64,-5 -112,32 -46,35 -14,114 -16,133 -2,15 -4,11 -6,23 -11,58 12,43 0,110 -20,112 30,118 90,221 15,26 32,44 47,64 10,15 10,20 22,34 42,51 2,-8 50,67 45,72 55,55 57,115 2,24 -6,66 -3,101 1,22 20,53 -1,89 -13,-4 -6,4 -5,-18l0 -8c-35,-9 -7,8 -48,-2 -25,-7 -39,-6 -63,-11 1,-12 3,-14 3,-18 1,-1 1,-3 1,-5 0,-2 1,-3 1,-5l1 -17c1,-18 12,-67 -1,-82 -18,-21 -115,-17 -149,-19 -21,76 9,217 0,241 -32,94 106,79 182,75 61,-3 127,7 189,-5 48,-9 34,-28 56,-54zm-5798 -512c7,-42 -3,-48 13,-88 15,12 6,-1 13,17l4 50c-1,36 23,212 17,224 -2,0 -70,-5 -73,-20 -1,-8 0,1 7,-15l7 -57c3,-34 7,-81 12,-111zm-236 560c56,4 63,11 120,4 13,-2 22,1 40,2 2,-1 3,-5 4,-4l22 -34 19 -180c20,-1 36,-3 52,-5 27,-3 17,3 40,5 0,41 13,184 24,211 32,17 87,7 140,7 26,-14 7,-28 36,-13 -2,-16 -6,-21 -6,-31 1,-56 -2,-7 -10,-78l-48 -355c-2,-13 -6,-24 -8,-33l-49 -320c-6,-42 -39,-251 -52,-274 -29,0 -50,1 -77,2 -50,0 -63,-6 -80,15 -17,20 -14,45 -20,73 -20,88 -17,164 -18,171l-129 837zm2232 -419c0,41 7,52 3,84l0 237c17,158 166,91 334,104 34,0 66,-13 81,-31l15 -28c10,-22 9,-19 9,-46l1 -381c-1,-72 6,-118 -13,-188 -144,26 -194,-46 -194,77l0 62c11,40 53,-26 40,144 -1,18 -2,162 6,189l9 -24c5,-14 -1,-8 10,-20 15,28 5,35 1,46 -15,39 2,11 -13,25l-20 20 -96 -7c-1,-20 9,-33 9,-84l-13 -712 120 0c1,21 -1,45 2,66 1,7 4,26 4,26 1,13 2,-4 -1,9 -7,36 -3,-18 -3,11 39,13 28,3 68,6 99,9 78,12 78,-205 0,-99 -168,-62 -254,-67 -121,-6 -178,-9 -183,141 -2,57 -2,87 2,144l4 335c-1,25 -6,45 -6,67zm1661 -116l4 182c-2,49 -9,113 -9,161 0,251 40,196 259,193 16,0 31,5 44,5 32,0 36,-3 64,-1 95,6 105,-83 105,-165l-5 -817c2,-25 17,-102 -19,-111 -21,-5 -116,3 -133,-4 -7,14 3,2 0,10 0,0 -1,2 -1,2 -1,1 -2,2 -2,3 -2,3 -16,-1 -14,66l4 328c1,29 -3,53 -3,77 0,23 4,53 5,80 1,52 -4,106 10,144 -8,4 -8,-4 -18,0 1,31 6,22 17,38 -25,14 -11,16 -11,73l-5 93c-1,16 1,29 -12,37 -20,12 -9,1 -25,-17 -36,0 -40,7 -57,9 -54,3 -16,-136 -17,-238l-6 -495c0,-13 2,-30 1,-52l-1 -137 -16 -8c-7,-5 -10,-7 -14,-10 -33,-25 -22,-3 -81,-7 -82,-6 -59,-18 -60,174 0,132 -4,263 -4,387zm-926 -413c129,-8 40,-11 88,6l-5 216c0,14 1,29 1,43 0,0 0,14 0,14 -3,32 -74,22 -82,-2 -14,-43 4,27 -3,-12l-5 -105c1,-4 1,1 2,-12l3 -67c1,-28 0,-54 1,-81zm-159 279l-15 15c-22,29 -2,3 -21,14 -4,179 10,105 27,168 3,11 -4,345 3,418 2,26 -7,43 9,58 8,8 4,-1 25,1 44,3 80,7 123,-2l7 -491c30,-10 52,-12 83,0 2,52 -1,420 7,457 1,8 1,12 4,20 5,20 -23,12 92,17 14,1 28,0 41,-2 29,-6 19,0 33,-17 9,-16 4,-101 -1,-123 -14,-1 16,-8 -4,4 -17,10 10,13 -7,2 1,-28 8,-33 13,-55l0 -172c-8,-134 27,-135 -44,-215 -14,-15 -6,1 -16,-19 32,-10 32,-4 49,-78 6,-28 -2,-85 -5,-115 -2,-24 4,-27 6,-47 2,-14 -1,-26 1,-44 6,-76 19,-197 -43,-218 -28,-9 -345,-5 -370,-5 -8,20 -13,250 -4,282 19,61 2,-11 0,96 -1,38 6,15 7,51zm-3135 175c24,-7 48,-4 78,-1 2,58 -6,172 4,220 8,36 1,12 -3,54 -7,63 21,48 1,73 -20,16 -23,3 -50,6l-6 1c-17,2 -13,-1 -34,-13 -2,-32 5,-84 5,-123 0,-113 -5,-106 5,-217zm-1 -167c-2,-71 -8,-77 -12,-115 -2,-28 1,14 6,-19 7,-44 3,-110 8,-157 23,0 72,-10 79,14l2 137c-17,141 42,164 -83,140zm-200 55l0 76 17 27c1,2 4,6 5,8 4,8 3,1 6,12 11,32 -7,350 7,423l1 15c0,0 0,2 0,3 1,52 -30,48 130,48 68,0 216,15 264,-32 27,-26 24,-60 24,-104 -1,-118 8,-262 4,-368 -1,-35 -10,-33 -30,-60l-26 -33c16,-8 19,-6 30,-29 24,-47 14,-116 10,-165 -1,-21 7,-72 7,-113 0,-43 1,-87 1,-129 -1,-44 -18,-63 -52,-70 -44,-10 -205,-1 -256,-2 -37,-1 -82,-11 -110,5 -3,27 -5,251 1,280 6,24 8,-3 2,41 -3,15 -5,39 -4,54 1,38 11,20 9,42 -5,16 -16,5 -26,31l-14 40zm5864 -224l7 313c0,21 -6,22 -5,43l5 228c0,34 -6,57 -7,88 -12,2 -26,4 -39,7 -69,15 -60,-14 -53,-98l-2 -250c-5,-107 16,-228 -7,-357 -6,-36 11,-4 9,-64 -1,-15 -3,3 -1,-15 4,-25 8,-9 34,-13 46,-6 -12,-14 38,-8 -16,27 15,-7 24,35 6,23 -3,65 -3,91zm-272 166l0 626c-1,60 46,44 104,44 67,0 128,-1 203,1 195,4 124,-132 135,-382l0 -652c-8,-71 -65,-71 -136,-71 -67,0 -135,-1 -202,0 -23,0 -80,-3 -98,0 -25,5 -11,32 -12,65 -3,65 -4,136 5,197l1 172zm-1564 -268c31,-11 29,-6 64,-8 62,-5 41,-12 46,4 8,29 -3,92 -2,118l0 393c0,30 8,37 8,55l-7 104c-4,85 20,86 22,107 -18,-7 -100,1 -132,2 5,-132 7,-254 2,-387 -1,-24 4,-63 3,-96 -1,-52 5,-271 -4,-292zm-172 -46l0 78c3,31 1,54 -2,84 -2,43 3,93 4,152 -21,11 -26,1 -30,49 -10,139 28,89 31,161 4,59 -5,330 1,371l9 23c6,11 1,1 7,10 3,6 2,5 6,13 34,65 110,43 149,43 59,0 146,6 192,1 69,-6 95,-60 95,-131l1 -338c6,-79 30,23 30,-153 0,-40 -1,-38 -28,-55 -7,-87 5,-328 -8,-375 -22,-79 -50,-40 -120,-54l-193 -5c-121,-5 -144,25 -144,126zm-2867 -80l5 81c2,45 -4,61 69,55 39,-6 -13,-21 37,-7 29,7 22,20 22,49l-6 793c-1,116 -27,105 169,89 16,-35 4,-451 9,-531 6,-91 -3,-53 -3,-92l9 -240c-11,-10 -2,-5 -19,-13 0,0 1,-1 1,0 1,1 3,0 3,0l15 5c-1,-11 -2,-17 -1,-27 0,-4 5,-17 9,-21 9,-11 17,-6 37,-5l75 0c12,-3 29,-18 50,-2 17,13 10,132 10,155l-6 676c-1,123 -29,111 167,96l11 -446c0,-23 -1,-36 -1,-61 1,-26 7,-51 5,-74 -2,-30 -11,-29 -5,-64 15,-82 -10,-247 15,-273 15,-13 27,-7 53,-10 44,-4 52,29 52,-58 0,-136 30,-115 -229,-115 -46,0 -19,17 -77,3l-280 -3c-28,0 -25,7 -49,8 -15,0 -61,-15 -121,-8 -25,3 -26,6 -26,40z"/>
   <path class="fil1" d="M1451 0l3669 0 0 591 -3669 0 0 -591zm2674 497c58,4 59,11 69,-127 1,-20 -5,-21 7,-35 3,22 18,156 41,161 6,2 -1,1 11,2 14,1 20,0 33,-1 8,-72 74,-372 64,-402 -68,-6 -56,-11 -70,82 -7,46 -15,90 -19,137 -26,-94 -14,-210 -44,-218 -1,0 -10,-2 -11,-2 -46,0 -36,29 -47,115 -5,41 -3,81 -17,101l-32 -217 -58 1c-1,49 64,388 73,403zm533 -291c33,1 20,0 30,7 3,-5 2,-3 7,-13 3,-6 6,-11 8,-17 12,-32 10,-47 8,-82l-59 -2c-2,64 10,42 8,77 0,10 -2,17 -2,30zm-2796 -94l0 357c0,37 11,31 49,30 28,-1 41,-1 66,-8l0 -51 -54 -1c15,-63 6,-247 5,-343 -27,-5 -66,-13 -66,16zm347 -14c16,63 38,118 55,178 18,68 3,141 5,216l66 1c1,-67 -9,-161 8,-219 18,-60 37,-119 52,-176 -18,-2 -60,-3 -65,-4 -2,16 -21,97 -28,108l-31 -105 -62 1zm242 400l133 0c8,-24 8,-29 1,-52 -18,-9 -48,-7 -74,-7l0 -122 72 -2 -1 -52c-20,-9 -9,-4 -32,-6 -62,-5 10,8 -35,-5 -1,-1 -4,-2 -5,-3 -4,-16 1,-67 1,-97l78 0c4,-61 31,-63 -138,-59 -10,42 4,90 -7,159 -2,11 -4,12 -5,27 -4,46 12,14 12,104 -1,38 -2,78 0,115zm2421 -59c-15,7 -29,3 -44,1l5 -51c-72,-10 -57,-11 -56,54 1,47 -29,65 126,56l21 -3c23,-46 9,-73 10,-119 0,-43 -36,-78 -74,-130 -27,-37 -27,-36 -27,-94l43 -4 0 47 46 5c3,-6 3,-4 6,-15 6,-21 2,-36 4,-58 2,-39 -16,-39 -53,-40 -98,-1 -101,-9 -101,86 1,64 -17,39 52,134 41,55 48,53 44,95 -2,21 2,22 -2,36zm-2743 -74c-42,-9 -24,-6 -19,-45 2,-21 -2,-45 12,-62l7 107zm-103 129c30,4 31,6 62,-2 28,-78 -15,-74 40,-78 15,22 8,51 17,79 11,6 36,11 51,2 22,-13 -6,-123 -13,-169l-36 -233c-84,0 -57,-11 -87,175 -13,77 -24,150 -34,226zm-327 -225c13,-34 -3,-91 9,-121l19 -1c13,19 8,38 8,64 0,21 1,43 2,65l-38 -7zm-61 -77c-3,80 -10,83 0,143l0 78c0,61 -16,86 46,86 30,0 22,-38 20,-116l-2 -47c114,-9 99,36 99,-205 0,-13 -3,-22 -5,-32 -70,-12 -85,-7 -158,-6l0 99zm1243 -74l0 338c0,63 63,39 111,40 73,1 59,-25 58,-101l0 -277c-4,-19 -11,-25 -55,-17l-5 195c1,96 15,168 -47,142 -5,-42 15,-277 -5,-339l-57 -8 0 27zm-163 136c-2,-33 -7,-81 4,-107l25 -1c2,6 2,0 4,16l1 98 -34 -6zm-61 135l0 108 59 2c2,-40 -7,-156 6,-183 39,0 26,-2 28,78 2,39 1,72 5,104l58 1 1 -178c0,-22 -8,-25 -17,-35 5,-17 12,-21 14,-39 2,-14 -3,-26 -1,-47 3,-38 6,-67 -2,-102 -19,-7 -109,-13 -151,-3 0,39 6,126 -6,160 -19,58 6,6 6,134zm780 -80c45,-23 32,78 32,111 0,24 -2,63 15,73 15,8 38,6 55,5 -11,-20 -4,-101 -3,-134 1,-83 -2,-82 -45,-105 3,-39 45,-133 40,-153 -1,-8 15,-7 -16,-13 -13,-2 -25,0 -37,2 -24,42 -24,100 -49,140l-3 -134 -63 -9 -3 340c0,53 -2,57 11,63 27,12 52,4 55,-21 3,-18 0,-64 0,-85l11 -80zm505 -158c3,69 -9,242 11,289 -41,12 -51,-9 -53,-10 21,-33 -2,-217 8,-276l34 -3zm-103 -14l-4 119c-7,46 5,53 5,96 -1,162 -8,147 129,147 61,0 35,-86 40,-160 2,-42 12,-9 12,-61 0,-44 -13,6 -12,-86 1,-113 13,-99 -138,-99 -23,0 -32,20 -32,44zm575 359l61 4c1,-35 -7,-157 4,-175 17,36 51,158 52,176l59 1 1 -396c-17,-8 -35,-15 -60,-11 -6,60 3,107 -3,170 -11,-14 -32,-80 -38,-101 -14,-49 -13,-79 -75,-66 -10,23 -11,370 -1,398zm-807 2l57 2c13,-40 -6,-155 3,-178l56 177 55 4 0 -397 -60 -13 -5 160c-67,-131 -6,-158 -112,-158 -12,52 4,256 2,273 -4,30 -11,104 4,130zm-489 -355l0 353 65 4 -2 -173c14,14 13,21 19,40 5,17 9,29 14,47 8,28 16,64 30,86l49 3c5,-45 16,-360 0,-395 -1,-1 -43,-26 -56,-7 -13,18 9,139 -7,166 -12,-42 -27,-83 -40,-125 -9,-29 -6,-46 -38,-49 -42,-4 -34,17 -34,50z"/>
  </g>
 </g>
</svg>
