<?xml version="1.0" encoding="UTF-8"?>
<!DOCTYPE svg PUBLIC "-//W3C//DTD SVG 1.1//EN" "http://www.w3.org/Graphics/SVG/1.1/DTD/svg11.dtd">
<!-- Creator: CorelDRAW X8 -->
<svg xmlns="http://www.w3.org/2000/svg" xml:space="preserve" width="55.283mm" height="23.93mm" version="1.1" style="shape-rendering:geometricPrecision; text-rendering:geometricPrecision; image-rendering:optimizeQuality; fill-rule:evenodd; clip-rule:evenodd"
viewBox="0 0 5528 2393"
 xmlns:xlink="http://www.w3.org/1999/xlink">
 <defs>
  <style type="text/css">
   <![CDATA[
    .fil0 {fill:#CACACA}
   ]]>
  </style>
 </defs>
 <g id="Слой_x0020_1">
  <metadata id="CorelCorpID_0Corel-Layer"/>
  <path class="fil0" d="M3217 510c20,-18 18,-10 85,-11l-50 70c0,-1 -1,1 -2,2l-33 -61zm-3217 787l0 507c8,14 13,42 23,61 25,50 73,92 134,106 58,14 244,5 316,5 71,0 259,8 312,-9 72,-24 140,-92 141,-184l-698 0 1 -468 697 0c-3,-92 -71,-158 -143,-181 -55,-18 -243,-9 -313,-9 -75,0 -254,-9 -316,6 -44,11 -80,37 -101,61 -44,50 -37,75 -53,105zm4788 -20l555 0 0 534 -555 -2 0 -491 0 -41zm-13 -158c-65,9 -111,45 -138,85 -38,57 -34,112 -34,189 0,74 0,148 0,222 0,58 -6,166 9,215 47,156 196,139 304,139 72,0 399,4 441,-2 64,-8 112,-46 137,-85 39,-60 33,-108 33,-188 0,-75 6,-385 -8,-435 -16,-57 -56,-98 -101,-121 -59,-29 -131,-21 -201,-21 -72,0 -399,-3 -442,2zm-336 354l-630 -1c7,68 69,136 150,143 93,8 205,-8 297,1l0 183 -594 1 0 -517 775 0c-8,-61 -46,-106 -82,-131 -54,-38 -105,-35 -181,-35 -143,1 -286,0 -430,0 -72,0 -128,-2 -180,35 -112,82 -84,203 -84,345 0,72 0,144 0,215 0,73 -1,123 36,174 80,111 207,83 347,83 71,0 143,0 215,0 131,0 263,27 334,-94 36,-60 26,-112 27,-188 0,-71 -1,-143 0,-214zm-3147 -164l727 -1c2,-71 -70,-156 -152,-177 -59,-15 -251,-6 -326,-6 -76,0 -261,-9 -321,12 -77,26 -136,98 -136,199 0,114 -11,204 92,272 67,44 143,33 232,33l420 0 0 151 -742 0c-2,49 32,99 63,130 29,28 78,54 134,54l491 0c100,1 129,1 194,-52 43,-34 68,-97 68,-176 0,-88 7,-144 -37,-207 -27,-39 -84,-85 -157,-85l-550 0 0 -147zm1973 -824c7,-24 -13,-41 47,-33l-1 35c-19,9 -46,6 -67,3 9,-4 13,-2 21,-5zm-1046 1908l77 0 46 -8c18,-85 -17,-14 -12,-153 1,-33 4,-42 15,-71 4,-12 7,-19 12,-31 24,-58 24,-14 44,-45 6,-9 9,-20 13,-30 8,-22 14,-46 24,-66 14,-28 50,-94 48,-129 -3,-48 -10,-21 8,-65 4,-10 7,-23 13,-30 15,-15 24,-8 42,-48 25,-58 42,-8 51,-85 7,-50 25,-90 43,-133 15,-38 16,-30 35,-54 21,-27 16,-27 29,-62 9,15 13,29 23,43 12,20 16,21 44,24 26,3 23,12 37,31l82 122c29,44 28,43 91,39 24,30 21,29 18,73 -7,78 -23,26 -24,79 0,49 8,139 22,183 6,17 3,28 7,43 6,23 13,-1 16,32 2,34 3,67 6,101 3,52 -4,6 -19,79 -7,31 -15,53 -14,89 31,18 49,14 88,9 42,-4 110,46 274,17 7,-54 0,-60 -45,-78 -70,-27 -46,-8 -111,-86 -12,-15 -17,-19 -21,-44 -3,-19 -4,-108 2,-124 6,-15 11,-2 16,-49 2,-22 -1,-38 -5,-58 -8,-39 6,-73 10,-113 3,-33 18,-155 4,-181 -13,-26 -6,-27 -12,-56 -20,-12 -13,11 -24,-18 -5,-12 -7,-20 -12,-32 -46,-117 -73,-192 -154,-290 -19,-23 -27,-17 -35,-55 -9,-45 -13,-31 4,-70 49,8 44,34 74,-22 21,-39 17,-60 20,-108 4,-46 19,-133 -8,-165 -9,-11 -28,-15 -40,-24 8,-23 13,-24 13,-52 39,14 102,61 161,78 15,4 23,2 36,4 8,2 37,28 84,-19 38,-38 62,-14 81,-159l41 -10c-4,-21 -10,-40 -15,-61 -7,-32 -5,-37 -5,-70 21,-4 20,-11 30,-23 13,-15 23,-10 23,-35 66,-19 16,-13 110,-14 41,0 82,0 124,0l2 -25c12,-2 21,3 38,2 23,0 24,-4 43,-5l112 0c20,2 7,2 16,6 16,6 18,-2 41,-2 41,0 57,12 47,-35 -18,0 -45,2 -61,0 -17,-2 -8,-7 -24,-2 -20,7 5,7 -23,9 -21,1 -106,1 -123,-2 -2,-3 -2,-1 -2,-8l2 -18c0,-7 0,-3 -3,-10 -14,0 -8,3 -23,6 -2,-24 -7,9 -7,-88l-20 -2 1 80c-2,19 4,13 -16,14l0 -24 -501 0c0,-1 -1,-4 -1,-3l-6 -14c-50,-5 -16,-19 -32,-47 -22,2 -4,14 -22,60 -42,1 -64,16 -112,17 9,-15 -3,-37 -1,-64 46,-15 61,-15 62,-72 0,-49 -6,-50 -17,-86 -5,-15 -1,-16 -3,-34 -29,-17 -27,-11 -64,-35 -46,-31 -44,-19 -69,-31l-56 0c-31,16 -85,13 -127,96 -13,25 -22,55 -24,86 -5,49 9,55 14,94l-15 14c-23,-13 -18,-26 -63,-20 -21,2 -46,10 -62,20 -72,41 -107,131 -119,214 -19,131 30,148 -16,160 -30,8 -48,-3 -66,6 -26,12 -11,95 -25,160 -6,28 -10,53 -9,82 23,15 62,11 85,23 -29,6 -40,12 -58,27 -8,80 16,157 16,238 -23,7 -24,-7 -35,30 -2,8 -7,23 -6,30 2,9 0,4 12,15l4 4c-3,4 -13,20 -13,23 -3,13 3,11 6,21 6,19 -5,11 0,29 4,14 9,9 13,19 6,13 -34,171 -27,229 8,74 -5,52 -27,102 -21,50 -9,16 -26,42 -23,34 -56,95 -59,137 -5,76 -47,72 -52,150 -2,34 -1,34 16,50 -6,62 -90,277 -41,302l17 4c10,2 16,2 24,6z"/>
 </g>
</svg>
