<?xml version="1.0" encoding="UTF-8"?>
<!DOCTYPE svg PUBLIC "-//W3C//DTD SVG 1.1//EN" "http://www.w3.org/Graphics/SVG/1.1/DTD/svg11.dtd">
<!-- Creator: CorelDRAW X8 -->
<svg xmlns="http://www.w3.org/2000/svg" xml:space="preserve" width="69.539mm" height="14.64mm" version="1.1" style="shape-rendering:geometricPrecision; text-rendering:geometricPrecision; image-rendering:optimizeQuality; fill-rule:evenodd; clip-rule:evenodd"
viewBox="0 0 6954 1464"
 xmlns:xlink="http://www.w3.org/1999/xlink">
 <defs>
  <style type="text/css">
   <![CDATA[
    .fil0 {fill:url(#id0)}
    .fil1 {fill:url(#id1);fill-rule:nonzero}
   ]]>
  </style>
  <linearGradient id="id0" gradientUnits="userSpaceOnUse" x1="13.96" y1="47.86" x2="1050.67" y2="1411.09">
   <stop offset="0" style="stop-opacity:1; stop-color:#B22017"/>
   <stop offset="1" style="stop-opacity:1; stop-color:#E44C22"/>
  </linearGradient>
  <linearGradient id="id1" gradientUnits="userSpaceOnUse" x1="2139.99" y1="1132.95" x2="2133.99" y2="360.66">
   <stop offset="0" style="stop-opacity:1; stop-color:#938372"/>
   <stop offset="0.270588" style="stop-opacity:1; stop-color:#A1968A"/>
   <stop offset="1" style="stop-opacity:1; stop-color:#7C685E"/>
  </linearGradient>
 </defs>
 <g id="Слой_x0020_1">
  <metadata id="CorelCorpID_0Corel-Layer"/>
  <g id="_2098350782432">
   <path class="fil0" d="M275 874l289 278 -85 34 -35 7 -28 20 -113 6 -68 -55 -55 -43 26 -81 69 -166zm589 -558l260 201 32 2 -5 -46 10 -29 5 -37 8 -18 7 -27 -5 -53 -86 -58 -65 20 -68 20 -48 2 -45 23zm-708 -39c0,0 34,-5 60,-20 25,-16 56,-21 72,-13 16,6 48,31 65,43 17,13 76,57 76,57l10 23c0,0 12,-2 42,15 29,16 204,134 204,134l397 267 47 39 -10 6 27 6 144 98c0,0 -11,80 -42,161 -30,81 -24,93 -56,107 -32,13 -161,-7 -161,-7l-180 -184 -17 -23 -12 -20 -41 -30 -16 -19 -46 -40 -13 -19 -7 -15 -26 -23 -20 -19 -129 -141 -84 -79 -55 -63 -10 -4 -1 -12 -218 -225zm-52 -246c0,0 -60,0 -67,-1 -7,-3 -25,-4 -25,20 0,23 -6,39 2,56 8,17 8,51 6,103 -2,51 -14,91 -18,127 -4,35 -1,43 1,73 2,31 4,39 11,73 7,34 22,80 19,94 -3,15 -16,32 -7,69 10,37 25,42 25,59 0,17 -23,45 -31,56 -8,10 -11,11 -9,59 2,48 1,105 1,105 0,0 18,12 27,23 9,11 9,70 9,94 0,25 -17,61 -17,61 0,0 -27,17 -24,70 3,53 3,86 4,122 1,36 -3,49 -6,73 -3,24 32,29 37,31 2,1 5,0 10,-1 6,-1 14,-3 22,3 13,8 14,16 32,11 19,-5 34,-9 46,-9 12,0 20,6 33,4 14,-2 18,-4 18,-4l18 -1c0,0 -9,-5 28,-3 38,3 29,10 29,10 0,0 -8,-7 35,-7 43,0 -4,8 43,9 47,1 55,0 69,-6 14,-7 22,-11 30,-9 8,2 28,1 36,5 8,3 18,10 27,11 10,1 25,3 25,3l21 1 14 -6c0,0 27,51 48,53 20,2 13,-20 35,-24 23,-4 35,-1 45,3 10,6 20,9 25,5 5,-5 15,-8 15,-8 0,0 -4,6 17,12 20,6 21,-3 40,-10 20,-6 111,-11 145,-9 33,2 54,-1 82,-1 27,0 42,-1 54,-7 11,-6 23,-12 23,-12 0,0 1,8 30,12 29,4 44,4 44,4 0,0 -2,0 23,4 26,5 86,3 86,3l28 -10c0,0 -26,-4 -9,-15 16,-12 43,-9 43,-9 0,0 52,0 72,14 20,14 34,18 34,18l-1 -598c0,0 -35,5 -40,0 -5,-4 -2,-13 11,-20 14,-7 8,-75 8,-75 0,0 5,-52 5,-60 0,-8 -7,-34 -15,-46 -8,-11 -38,-47 -38,-52 0,-5 0,-8 0,-8 0,0 8,-13 15,-21 8,-7 12,-18 7,-24 -6,-6 -9,-21 6,-25 14,-6 39,-14 39,-14 0,0 7,-215 -4,-278 -11,-64 -10,-72 -5,-83 5,-12 6,-13 6,-13 0,0 9,-51 -3,-57 -13,-6 -24,-3 -34,-17 -11,-15 -42,-15 -50,-14 -8,1 -48,6 -55,3 -7,-5 -22,-17 -31,-13 -10,4 -25,43 -36,35 -11,-8 -5,-37 -21,-38 -17,-1 -56,-1 -83,-1 -27,0 -85,2 -103,-3 -19,-5 -60,-10 -66,-9 -6,3 -14,14 -23,38 -10,23 -31,20 -50,20 -20,0 -19,-25 -19,-25 0,0 -92,-17 -70,-21 21,-4 27,-12 19,-14 -8,-3 -77,3 -132,3 -54,0 -76,0 -92,0 -15,0 11,23 -32,29 -41,4 -51,0 -54,6 -3,8 -50,12 -87,12 -36,0 -46,-5 -46,-5 0,0 -5,-18 -25,-19 -20,-1 -255,6 -255,6l0 0z"/>
   <path class="fil1" d="M2140 410l0 535c0,40 1,75 5,93 15,61 75,56 148,61 197,14 326,-137 318,-331 -11,-290 -220,-367 -471,-358zm4345 145c-18,-19 -16,-89 -16,-157 116,-67 290,-72 391,12 73,72 83,171 28,296 -69,135 -189,234 -312,332 -12,13 -16,13 2,13l252 1c52,-15 97,-42 116,-113l8 -1c0,66 -15,142 -46,196l-452 4c-26,1 -57,-5 -36,-25 114,-106 265,-214 333,-365 43,-94 52,-188 19,-267 -14,-34 -35,-60 -69,-73 -106,-40 -217,16 -213,141l-5 6zm-913 357l-136 -365 -138 365 274 0zm316 220l-271 0 0 -13 36 0 -65 -157 -314 0 -38 122c-18,57 82,21 72,48l-257 0 0 -13c38,-1 61,12 91,-31 40,-56 63,-138 89,-203l230 -576 245 599 210 6c1,0 9,10 -5,11 -48,3 -87,0 -101,17 -16,21 -88,15 -87,16 27,66 63,128 83,147 28,29 82,0 82,27zm-1442 -708l-206 -1c-49,10 -68,44 -84,82 2,-54 9,-105 23,-159 18,13 42,17 71,20l545 -5c17,2 34,-1 49,-10 2,33 2,88 -1,162l-12 -4c2,-53 -36,-71 -78,-84l-182 0 0 540c0,38 3,97 6,115 7,38 44,48 76,46 16,-2 32,-4 32,11l-335 0c0,-34 49,3 74,-31 11,-16 18,-37 20,-64 1,-15 2,-56 2,-81l0 -537zm-1170 26c-76,69 -85,197 -85,309 0,162 129,353 321,342 192,-11 231,-185 237,-341 6,-136 -63,-278 -186,-336 -83,-39 -216,-37 -287,26zm611 296c-3,53 -13,102 -32,152 -61,159 -223,256 -394,253 -248,-4 -406,-168 -412,-398 -4,-174 98,-317 250,-377 62,-25 129,-28 194,-29 237,-1 412,167 394,399zm-1875 229l-3 -435c-1,-87 11,-163 -91,-166l0 -13 296 0c281,0 525,59 521,416 -1,152 -112,295 -256,339 -44,14 -99,20 -164,20l-397 0 0 -13c101,-4 94,-62 94,-148z"/>
  </g>
 </g>
</svg>
