<?xml version="1.0" encoding="UTF-8"?>
<!DOCTYPE svg PUBLIC "-//W3C//DTD SVG 1.1//EN" "http://www.w3.org/Graphics/SVG/1.1/DTD/svg11.dtd">
<!-- Creator: CorelDRAW X8 -->
<svg xmlns="http://www.w3.org/2000/svg" xml:space="preserve" width="63.049mm" height="20.246mm" version="1.1" style="shape-rendering:geometricPrecision; text-rendering:geometricPrecision; image-rendering:optimizeQuality; fill-rule:evenodd; clip-rule:evenodd"
viewBox="0 0 6305 2025"
 xmlns:xlink="http://www.w3.org/1999/xlink">
 <defs>
  <style type="text/css">
   <![CDATA[
    .fil8 {fill:#FEFEFE}
    .fil7 {fill:black}
    .fil6 {fill:#413E3C}
    .fil1 {fill:#4A3313}
    .fil5 {fill:#6A5F4C}
    .fil4 {fill:url(#id0)}
    .fil0 {fill:url(#id1)}
    .fil3 {fill:url(#id2)}
    .fil9 {fill:url(#id3)}
    .fil2 {fill:url(#id4)}
   ]]>
  </style>
  <linearGradient id="id0" gradientUnits="userSpaceOnUse" x1="138.17" y1="718.09" x2="6177.62" y2="718.09">
   <stop offset="0" style="stop-opacity:1; stop-color:#A76700"/>
   <stop offset="0.239216" style="stop-opacity:1; stop-color:#FFE674"/>
   <stop offset="0.631373" style="stop-opacity:1; stop-color:#FED257"/>
   <stop offset="1" style="stop-opacity:1; stop-color:#DFAC39"/>
  </linearGradient>
  <linearGradient id="id1" gradientUnits="userSpaceOnUse" x1="0.01" y1="948.2" x2="6304.9" y2="948.2">
   <stop offset="0" style="stop-opacity:1; stop-color:#4F483D"/>
   <stop offset="0.501961" style="stop-opacity:1; stop-color:#948A79"/>
   <stop offset="1" style="stop-opacity:1; stop-color:#4D453E"/>
  </linearGradient>
  <linearGradient id="id2" gradientUnits="userSpaceOnUse" x1="4508.43" y1="727.62" x2="5082.17" y2="727.62">
   <stop offset="0" style="stop-opacity:1; stop-color:#FEFDFD"/>
   <stop offset="1" style="stop-opacity:1; stop-color:#B8DFFF"/>
  </linearGradient>
  <linearGradient id="id3" gradientUnits="userSpaceOnUse" x1="0.01" y1="1478.88" x2="6302.87" y2="1478.88">
   <stop offset="0" style="stop-opacity:1; stop-color:#261F15"/>
   <stop offset="0.521569" style="stop-opacity:1; stop-color:#3F3325"/>
   <stop offset="1" style="stop-opacity:1; stop-color:#29231B"/>
  </linearGradient>
  <linearGradient id="id4" gradientUnits="userSpaceOnUse" x1="161.19" y1="476" x2="6140.59" y2="529.93">
   <stop offset="0" style="stop-opacity:1; stop-color:#321A02"/>
   <stop offset="0.478431" style="stop-opacity:1; stop-color:#FD8F12"/>
   <stop offset="1" style="stop-opacity:1; stop-color:#5A2D06"/>
  </linearGradient>
 </defs>
 <g id="Слой_x0020_1">
  <metadata id="CorelCorpID_0Corel-Layer"/>
  <g id="_2062578458192">
   <path class="fil0" d="M869 1173c7,26 23,52 23,75 -18,10 -299,55 -336,58 -1,-43 65,-312 71,-438 -31,2 -176,21 -207,40 -9,5 -1,-1 -9,7l-32 403c-6,14 -278,103 -294,106 -1,-39 39,-186 49,-235 17,-79 33,-159 45,-240 34,-212 37,-321 38,-533 22,-15 234,-82 271,-89 0,53 -15,123 -22,176 -8,58 -19,117 -25,174 65,-7 151,-27 206,-50l9 -303c18,-11 232,-42 270,-46 -3,67 -23,152 -33,220 -12,72 -21,145 -29,218 -16,129 -33,338 5,457zm208 116c45,-25 89,-49 134,-72l-110 22 -1 -38c-17,0 -131,18 -152,30 -17,73 29,78 -65,94 -44,7 -88,14 -133,22 -88,14 -182,35 -269,45 4,-24 9,-46 13,-70 5,-23 13,-41 17,-63 -2,-23 29,-191 37,-218l13 -93c-11,1 -91,12 -99,24 -5,8 -23,295 -28,352 -6,57 -6,56 -55,73 -49,17 -355,127 -379,129l0 -7c10,-17 54,-225 63,-263 20,-90 41,-182 57,-274 40,-236 48,-375 38,-612l94 -34c57,-19 259,-89 291,-91 8,9 6,7 4,41 -1,16 -2,30 -3,46 -2,30 -8,61 -12,90 -7,51 -22,129 -23,178l60 -13c1,0 11,-2 11,-2l7 -3c1,0 3,-1 4,-1 10,-20 3,-85 8,-111 3,-51 0,-120 2,-177l0 -29 387 -60c4,5 2,1 3,9l-18 141c19,-1 62,-2 74,-9 147,-8 650,-104 671,-104 5,19 21,68 33,86 0,0 1,1 2,2l1 -62c40,-12 356,-80 368,-75l-1 36 36 -1c23,1 53,-2 73,8 11,-10 4,-10 12,-27 37,-9 161,-7 209,-10l410 -36c64,-9 128,-17 193,-25 -2,18 -7,17 -1,38 30,15 230,8 280,8 8,-2 19,-25 50,-49l160 -127c4,-4 3,-2 7,-7l26 0 414 54 11 185 569 48 1 47c11,-2 47,-26 59,-33 35,-23 37,-18 84,-13 79,7 169,24 233,65 21,14 62,10 93,10 65,1 131,1 197,2 15,6 22,18 30,30l83 96c13,19 47,57 63,72l-44 -156 18 2c35,-3 153,18 195,23 64,9 129,16 191,28 62,12 122,23 185,34 61,11 122,26 183,36l164 898 0 10 -2 -1c-62,-24 -129,-48 -199,-63 -57,-12 -170,-34 -226,-32l6 49c-52,-2 -115,-14 -168,-20 -58,-6 -29,9 -102,-88 -31,-41 -92,-115 -129,-152 -16,-16 -28,-34 -46,-50 5,63 36,122 46,182l-205 -12c39,29 78,59 117,90 -69,111 -63,427 40,554 -1270,-158 -2008,-151 -2189,-28 -355,-134 -1060,-151 -2180,29 155,-141 140,-465 9,-607zm367 -190c6,-2 11,-5 17,-8 8,-29 8,-76 18,-112 11,-35 24,-70 33,-104l119 -11c15,32 23,86 31,135 135,-58 268,-110 399,-155l-1 -27 17 21c70,-24 140,-46 209,-67 -23,-36 -44,-70 -56,-94 52,-74 90,-151 68,-273 -25,-140 -125,-114 -229,-101l-1 -37 -258 53c-1,29 24,71 32,108 21,103 20,313 4,409 -22,-26 -151,-461 -164,-525 -37,6 -268,45 -283,55 -3,43 100,86 90,130 -29,126 -148,391 -215,480l4 -71 -165 29c7,-115 8,-65 144,-92 5,-1 7,-2 11,-3 15,-6 -1,4 8,-5 9,-12 39,-410 42,-460l-387 51c-6,33 2,155 2,197 -1,126 -11,251 -33,374 -9,47 -32,133 -31,177 58,-4 200,-53 299,-50 -10,14 -12,11 -12,36 44,-9 229,-43 288,-60zm75 -35c31,-15 62,-29 93,-43 -10,-27 -11,-59 -23,-82l-38 4c-15,39 -25,79 -32,121zm951 -342c62,-16 124,-30 186,-42 -3,-78 1,-156 5,-240 64,-5 83,20 106,59l30 -82c10,74 11,158 7,236 177,-29 350,-44 520,-47 -9,-139 -3,-282 5,-362l-237 -4c-6,43 16,139 20,186l-103 3 -2 -226c-57,3 -114,16 -171,23 -135,17 -412,35 -542,38l24 328 44 -54c7,-7 13,-12 19,-19 32,-36 44,-29 84,-55 15,48 8,201 5,258zm943 -116c216,2 426,26 631,71 -4,-48 -19,-51 16,-97 27,-36 45,-66 109,-67 6,66 13,133 20,199 66,18 132,39 198,61 -14,-79 -23,-160 -21,-241 26,1 90,4 109,14 5,8 3,-4 4,15 1,42 -8,53 1,141 3,36 8,76 18,112 98,39 195,82 291,131 64,-25 111,-75 122,-144 7,-48 3,-110 -10,-154 -18,-60 -61,-78 -100,-59 -54,13 -74,37 -98,75 20,15 108,-50 98,77 -8,94 -78,72 -107,67 -18,-8 -35,-37 -47,-61 -14,-28 -18,-54 -21,-87l9 -17c2,-5 4,-11 5,-16 4,-12 8,-22 14,-33 10,-22 21,-37 34,-54 104,-132 276,15 301,134 22,105 -37,206 -82,266 -13,17 -27,32 -43,46 52,28 104,58 156,90 12,-7 26,-13 39,-18 19,-7 16,-2 24,-17 53,-97 45,-231 28,-338 -10,-64 -27,-124 -58,-177 -11,-18 -23,-34 -32,-51 13,7 19,18 29,29 71,76 111,151 128,262 16,100 33,201 20,302 -3,31 -14,70 -15,97l251 17c0,-32 -62,-203 -66,-298 40,37 115,120 151,163 57,67 121,131 172,202 5,7 17,28 22,33 15,14 73,17 94,19 -23,-183 -116,-530 -95,-696 18,29 70,253 80,304 21,106 37,229 42,340 100,8 204,23 301,48 28,8 66,24 89,28 0,-35 -22,-198 -38,-218 -23,-16 -127,-16 -165,-27l-10 -69c45,-1 130,29 157,27 3,-49 -27,-181 -38,-232 -16,-77 -26,-157 -42,-235 -48,-19 -567,-104 -618,-99 0,64 86,235 89,308 -10,-18 -89,-94 -111,-119 -63,-74 -130,-146 -192,-221 -13,-16 -7,-20 -35,-21 -76,-4 -154,-6 -230,-3l-6 22c-42,-62 -162,-89 -236,-95 -83,-7 -105,19 -183,67 -17,10 -37,25 -53,32l23 -102 -556 -43c-10,27 35,241 37,272 -75,-127 -65,-56 -70,-207 -12,-307 25,-262 -115,-280l-209 -26c-57,-7 -49,2 -85,28 -45,33 -88,70 -130,105 -77,64 -53,355 -19,395 6,7 15,15 24,23zm1680 515c11,7 22,15 33,22 5,-33 7,-65 0,-99 -21,66 -13,69 -33,77z"/>
   <path class="fil1" d="M6079 839c4,5 3,4 6,8l-86 -6c-9,-17 -11,-48 -14,-70 44,12 69,37 94,68zm-5176 -472c-30,265 -118,613 -48,871l-229 39c13,-86 76,-360 62,-431 -95,-4 -199,22 -285,46 -16,71 -15,383 -37,417 -8,10 -182,68 -205,73 11,-70 31,-142 44,-212 31,-162 52,-281 66,-447 3,-40 6,-79 7,-119 0,-35 -5,-89 -1,-120l188 -60 -45 338c77,-4 233,-31 285,-68l7 -298 191 -29zm-11 847c-39,-120 -22,-328 -6,-458 9,-73 18,-145 29,-218 11,-67 30,-152 33,-219 -37,4 -251,35 -270,45l-8 303c-56,23 -141,43 -207,51 7,-57 17,-116 25,-174 7,-54 22,-123 22,-176 -37,7 -249,74 -271,89 0,211 -4,321 -37,533 -13,80 -29,161 -46,240 -10,48 -50,196 -48,234 16,-2 287,-91 293,-105l32 -404c8,-7 1,-1 9,-6 32,-19 176,-38 207,-40 -6,125 -72,395 -70,438 36,-3 317,-49 335,-58 1,-23 -16,-49 -22,-75 57,-4 199,-53 298,-50 -9,14 -12,11 -12,35 50,-9 277,-51 304,-65 10,-29 9,-78 20,-114 10,-35 23,-70 33,-105l118 -10c25,50 29,158 51,212 38,4 140,-13 190,-15 66,-3 134,-2 200,-6l-12 -238 135 158c114,126 287,296 477,250 25,-6 87,-29 95,-57l-129 -70c-22,-13 -42,-24 -63,-37 -22,-14 -40,-29 -62,-40 11,-6 184,-28 194,-30 1,-25 -21,-92 -28,-122 -32,-149 -24,-279 -18,-429 64,-5 84,20 106,59l30 -82c14,93 10,202 4,296 -3,56 -29,244 -22,282 87,-11 161,-20 252,-21l-21 -346 119 -4c3,125 -6,238 -9,359 62,3 110,1 171,13 52,10 106,31 151,39 -1,-27 -29,-64 -42,-88 10,2 9,4 20,13 6,5 14,10 22,16 14,10 27,19 42,29 27,18 61,35 95,48 86,33 156,37 255,38 13,-3 100,-110 108,-121 56,-74 92,-141 101,-243 9,-100 -27,-89 17,-148 27,-35 45,-65 109,-66 9,93 19,185 28,279 12,133 -28,255 -21,282l287 -7c5,-26 -26,-92 -35,-119 -13,-42 -24,-83 -32,-127 -19,-94 -32,-192 -30,-290 26,2 90,5 109,15 5,8 4,-5 4,14 1,43 -8,53 1,142 9,88 25,196 105,236 36,18 100,29 146,22 93,-14 166,-71 180,-160 8,-47 3,-109 -10,-153 -18,-60 -60,-79 -100,-60 73,-4 88,25 99,90 33,196 -111,303 -266,242 -24,-9 -47,-18 -57,-35 -54,-94 -87,-261 -57,-374 12,-45 40,-55 94,-88 53,-32 61,-47 135,-38 51,7 100,19 143,37 178,77 217,343 175,526 -9,38 -7,39 -38,55l-87 47c-59,34 -12,24 -111,20 16,-24 31,-30 48,-46l41 -42c86,-77 128,-251 58,-381 -16,-29 -57,-79 -77,-96 -33,-26 -64,-49 -125,-41 -46,7 -94,33 -116,57 -30,32 -36,83 -34,138l9 -16c2,-5 4,-12 6,-16 4,-12 8,-22 13,-33 11,-22 21,-37 34,-54 104,-132 277,14 301,133 23,106 -36,207 -82,267 -53,69 -135,113 -216,145 34,36 207,72 246,44 35,-25 78,-55 122,-71 19,-7 16,-2 25,-18 52,-96 44,-231 27,-337 -9,-64 -27,-124 -58,-177 -10,-18 -23,-34 -31,-52 12,7 19,19 28,29 72,76 111,152 129,262 16,100 32,202 20,303 -4,30 -15,69 -16,97l252 16c-1,-32 -62,-202 -66,-297 40,37 114,120 151,163 56,67 120,131 171,202 5,7 17,28 23,33 14,14 72,17 93,19 -23,-183 -115,-530 -94,-696 18,29 69,253 79,304 21,106 37,229 42,340 100,8 204,23 301,48 29,7 66,24 90,28 -1,-35 -23,-198 -38,-218 -24,-17 -128,-16 -166,-27l-10 -70c45,0 131,30 158,27 2,-48 -28,-180 -38,-232 -16,-77 -27,-156 -43,-234 -47,-20 -567,-105 -618,-99 0,64 86,235 89,308 -9,-18 -89,-94 -111,-120 -63,-73 -130,-145 -191,-220 -14,-17 -7,-20 -36,-22 -75,-4 -154,-5 -229,-3l-7 23c-41,-62 -162,-89 -235,-95 -83,-7 -106,18 -184,67 -17,10 -37,25 -52,32l22 -102 -555 -43c-11,26 34,240 37,272 -76,-127 -65,-57 -71,-207 -12,-307 26,-262 -114,-281l-209 -26c-58,-6 -49,2 -85,29 -45,33 -89,69 -131,105 -77,63 -53,355 -18,394 25,30 91,78 148,92 115,27 241,-36 281,72 11,29 16,77 2,102 -85,20 -201,-45 -257,-78 -44,-26 -63,-43 -99,-70 -32,-24 -60,-54 -89,-78l21 316c-89,-127 -84,-536 -68,-694l-237 -4c-5,42 16,139 21,186l-103 3 -2 -226c-58,3 -115,16 -171,23 -135,16 -413,35 -543,38l24 328 45 -54c6,-8 12,-12 18,-19 32,-36 45,-29 85,-55 15,48 8,202 4,258 -6,86 -15,150 -35,228 -49,-24 -167,-200 -205,-274 52,-73 91,-150 69,-272 -25,-140 -126,-114 -230,-101l-1 -38 -258 53c0,29 25,71 32,109 21,102 21,313 4,409 -22,-26 -151,-462 -163,-525 -37,5 -268,45 -284,54 -2,43 101,87 90,131 -29,126 -147,391 -215,480l4 -71 -165 29c7,-116 8,-65 145,-93 4,-1 6,-1 10,-3 15,-6 -1,5 8,-5 9,-11 39,-409 42,-459l-387 51c-6,33 3,154 2,197 -1,126 -11,251 -33,374 -8,47 -31,133 -30,177zm275 -596c15,1 55,8 70,12 17,5 31,27 38,42l-116 23 8 -77zm5033 666c-77,-21 -152,-37 -236,-48 -77,-10 -73,12 -81,-62 -13,-116 -30,-255 -55,-366 -18,-80 -48,-170 -59,-223l312 60 21 129c-17,-28 -106,-77 -166,-82l35 183 156 25 18 105 -160 -30c4,33 23,151 36,170 19,28 120,25 161,37l18 102zm-4125 -648c0,-25 1,-58 9,-81 6,-20 26,-41 44,-23 22,22 -1,87 -53,104zm3165 512c9,-133 16,-243 -2,-376 -26,-194 -100,-219 -125,-276l135 5 236 269c9,10 17,15 26,25 9,10 15,17 24,27 16,18 81,86 106,98 -10,-102 -53,-271 -84,-362l143 19 3 194c9,126 46,297 70,426 6,29 20,70 6,77 -18,6 -21,-10 -33,-25l-78 -98c-21,-24 -36,-44 -56,-66l-169 -189c-9,-11 -19,-18 -29,-29l-57 -61c-11,-10 -18,-19 -29,-29 1,37 37,249 50,298 6,22 24,68 25,86l-162 -13zm-3940 -687l-10 137c-19,-9 -14,-30 -61,-40 -30,-7 -63,-4 -94,0l-16 184 161 -27 -12 105 -141 18c-7,2 -5,2 -10,4 -20,8 -19,166 -16,171 14,19 110,-20 160,-18l-9 99c-20,4 -60,4 -83,6 -81,8 -149,28 -227,40 11,-103 36,-202 43,-309 4,-54 6,-110 7,-164 0,-28 -4,-152 -1,-166l309 -40zm2944 587c30,-177 8,-377 -22,-553 -71,-13 -116,10 -150,49l-29 -165 464 38 -21 101 -132 -14c0,91 10,197 23,286l47 254 -180 4zm-2359 -658l168 -36 0 72c29,-16 53,-49 113,-54 165,-14 163,187 42,308 11,40 110,190 143,235 83,116 223,231 357,287 -26,15 -101,16 -133,10 -91,-15 -211,-119 -271,-175 -87,-81 -163,-191 -234,-286 -12,-17 -25,-26 -23,-55 34,-24 66,-15 101,-68 25,-37 37,-88 15,-135 -25,-53 -81,-32 -102,6 -41,73 -9,475 -6,536 -183,0 -152,1 -325,17l-53 -211 -164 14c-7,31 -25,73 -36,107 -11,37 -16,81 -27,116l-173 34c14,-24 33,-48 50,-74 53,-83 90,-162 128,-254 24,-60 48,-121 71,-181 8,-21 28,-74 28,-96 2,-36 -33,-53 -47,-78l174 -32c23,101 162,573 213,608 20,-175 45,-444 -9,-615zm1723 -67c83,-5 148,27 199,65 39,28 105,88 126,130 -53,4 -245,-6 -281,-47 -37,-44 -45,-84 -44,-148zm-615 -33c3,71 -7,149 3,220 55,4 135,3 182,-14l-26 -174 160 2c4,48 -3,127 -3,179 0,60 1,121 5,181 12,174 37,182 62,303 -31,-3 -65,-12 -97,-16 -20,-3 -85,-7 -98,-14 5,-120 9,-228 2,-349 -52,-7 -136,-8 -187,2l20 341 -176 16c10,-111 25,-221 26,-334 1,-110 -22,-216 -31,-322l158 -21zm-639 53c156,3 309,-27 465,-30l-41 126c-37,-22 -84,-37 -126,-1 -12,82 -14,200 -10,284 4,75 36,251 35,255l-185 25c20,-99 35,-159 37,-268 1,-67 5,-229 -6,-288 -35,-9 -71,0 -96,15 -26,15 -38,35 -61,54l-12 -172zm1087 420c14,5 31,22 49,35 17,12 27,20 44,31 66,41 266,149 331,91 51,-46 16,-191 -22,-232 -48,-52 -190,-25 -267,-37 -32,-4 -127,-60 -142,-88 -11,-19 -16,-176 -13,-207 14,-119 48,-103 173,-207 22,-20 27,-14 61,-9 88,11 182,27 268,35l11 243c-24,-20 -54,-76 -135,-123 -38,-22 -175,-58 -219,-31 -23,20 -43,212 80,263 46,19 102,24 156,28 34,3 146,0 162,19 60,73 67,195 20,290 -18,37 -127,203 -163,203 -111,0 -205,-19 -290,-64 -118,-63 -96,-89 -104,-240z"/>
   <path class="fil1" d="M6069 821c3,4 2,3 6,8l-87 -7c-8,-16 -11,-47 -14,-70 44,12 70,37 95,69zm-5177 -472c-29,264 -117,613 -48,871l-228 38c12,-86 76,-360 62,-431 -96,-4 -199,22 -286,46 -16,71 -15,383 -36,417 -9,11 -183,68 -206,74 12,-70 31,-142 45,-213 30,-162 51,-280 65,-447 4,-40 6,-79 7,-119 1,-35 -4,-89 -1,-119l189 -61 -45 339c77,-4 232,-32 284,-69l8 -297 190 -29zm-11 846c-39,-119 -22,-328 -6,-457 9,-73 18,-146 30,-218 10,-68 29,-153 32,-220 -37,4 -251,35 -270,46l-8 303c-55,23 -141,43 -206,51 6,-58 16,-117 24,-175 8,-53 22,-123 22,-176 -37,7 -248,74 -270,89 -1,212 -5,321 -38,533 -13,81 -28,161 -45,240 -10,49 -50,196 -49,235 16,-2 287,-91 294,-106l31 -403c9,-8 1,-2 10,-7 31,-19 175,-38 206,-40 -6,126 -72,396 -70,438 36,-2 318,-48 336,-57 0,-24 -16,-50 -23,-76 58,-4 199,-53 298,-50 -9,14 -12,11 -12,36 51,-10 277,-51 305,-65 9,-29 8,-78 19,-115 10,-35 23,-70 33,-104l118 -10c25,50 30,158 51,212 38,3 141,-13 190,-15 67,-3 134,-2 200,-7l-12 -237 135 157c114,126 288,296 477,251 26,-6 87,-29 96,-57l-129 -70c-23,-13 -43,-25 -64,-38 -22,-14 -40,-29 -61,-39 10,-7 183,-29 194,-30 1,-25 -22,-93 -29,-123 -32,-149 -24,-278 -17,-429 64,-5 83,21 106,59l29 -81c14,92 11,202 5,295 -4,57 -29,244 -23,283 87,-11 161,-21 252,-21l-20 -346 119 -4c2,124 -6,238 -10,358 63,4 110,2 172,13 51,10 106,32 151,39 -2,-26 -30,-64 -43,-87 10,1 10,3 21,12 6,5 14,11 21,16 14,10 27,20 43,29 26,18 60,35 95,48 85,33 156,38 254,38 13,-3 100,-109 109,-121 55,-74 91,-141 100,-243 10,-99 -26,-88 18,-147 26,-35 45,-66 109,-67 8,93 19,186 27,279 12,133 -27,255 -21,283l287 -7c5,-26 -25,-92 -34,-120 -13,-41 -24,-83 -33,-127 -18,-94 -32,-191 -29,-289 25,1 89,4 108,15 6,7 4,-5 4,14 2,42 -8,53 1,141 9,89 26,197 105,236 37,18 100,29 146,22 93,-13 166,-71 181,-159 7,-48 3,-110 -10,-153 -19,-61 -61,-79 -100,-60 72,-4 87,24 98,90 33,195 -111,302 -266,241 -24,-9 -47,-18 -57,-35 -54,-93 -86,-260 -56,-374 12,-45 39,-55 93,-87 54,-33 62,-48 135,-38 51,6 100,18 143,37 178,76 218,342 175,525 -9,38 -7,39 -37,55l-88 47c-59,35 -12,24 -110,20 15,-24 30,-29 47,-45l42 -42c86,-77 127,-252 57,-382 -15,-29 -57,-79 -77,-95 -32,-26 -64,-49 -124,-41 -47,6 -94,32 -116,56 -30,33 -36,83 -34,139l9 -17c2,-5 3,-11 5,-16 4,-12 8,-22 13,-33 11,-22 21,-37 34,-54 105,-132 277,15 302,134 22,105 -37,206 -83,266 -52,69 -134,113 -215,145 34,37 206,72 245,44 36,-25 78,-54 123,-71 19,-7 16,-2 24,-17 52,-97 45,-231 28,-338 -10,-63 -28,-123 -58,-177 -11,-18 -23,-33 -32,-51 13,7 19,18 29,29 71,76 111,151 128,262 16,100 32,201 20,302 -4,31 -15,70 -15,97l251 17c0,-32 -62,-202 -66,-298 40,37 114,120 151,163 56,67 120,131 172,203 5,6 17,27 22,32 14,14 72,17 93,20 -23,-184 -115,-531 -94,-697 18,30 69,254 79,305 22,105 38,228 42,339 101,8 204,24 302,49 28,7 66,23 89,27 0,-34 -23,-198 -38,-217 -24,-17 -128,-17 -166,-28l-9 -69c44,0 130,29 157,27 2,-49 -27,-181 -38,-232 -16,-77 -26,-157 -42,-235 -48,-19 -567,-104 -619,-99 0,64 86,235 89,309 -9,-19 -89,-94 -111,-120 -62,-74 -130,-146 -191,-221 -13,-16 -7,-20 -35,-21 -76,-4 -154,-6 -230,-3l-6 22c-42,-61 -163,-89 -236,-95 -83,-7 -105,19 -183,67 -17,11 -37,25 -53,32l23 -102 -556 -43c-10,27 34,241 37,272 -75,-127 -65,-56 -71,-206 -11,-308 26,-263 -114,-281l-209 -26c-57,-7 -49,2 -85,28 -45,33 -88,70 -131,105 -76,64 -52,355 -18,395 26,29 91,77 148,91 116,28 241,-35 281,72 11,30 16,78 2,102 -85,20 -201,-44 -257,-78 -44,-25 -63,-43 -98,-69 -32,-24 -61,-54 -89,-78l20 316c-88,-127 -84,-536 -67,-695l-237 -4c-6,43 16,139 20,186l-103 4 -2 -226c-57,2 -115,15 -171,22 -135,17 -412,35 -543,38l24 328 45 -54c7,-7 12,-12 19,-19 32,-36 44,-29 84,-55 15,48 8,202 4,258 -5,86 -15,151 -35,229 -49,-25 -167,-200 -204,-274 52,-74 90,-151 68,-273 -25,-140 -125,-113 -230,-101l0 -37 -258 53c-1,29 24,71 32,109 20,102 20,312 4,409 -23,-27 -151,-462 -164,-526 -37,6 -268,45 -283,55 -3,43 100,86 90,131 -29,125 -148,390 -215,479l4 -71 -166 29c8,-115 8,-65 145,-92 5,-1 7,-1 11,-3 14,-6 -1,4 8,-5 9,-12 38,-410 41,-460l-386 52c-6,32 2,154 2,196 -1,126 -12,251 -34,374 -8,48 -31,133 -30,177zm276 -595c15,1 55,7 69,11 17,5 31,28 39,42l-117 23 9 -76zm5032 665c-77,-21 -151,-37 -235,-48 -78,-10 -74,13 -82,-61 -12,-116 -29,-255 -54,-366 -18,-81 -49,-171 -60,-224l312 61 21 128c-16,-27 -106,-77 -165,-81l35 183 155 25 18 104 -160 -29c4,33 23,150 36,170 20,28 120,25 161,36l18 102zm-4124 -648c0,-25 1,-57 8,-80 6,-20 26,-42 45,-24 22,22 -1,87 -53,104zm3165 513c8,-133 15,-243 -2,-377 -26,-193 -100,-218 -125,-276l134 5 237 270c9,9 17,15 25,24 9,10 15,17 24,27 17,18 82,87 106,99 -10,-102 -52,-272 -84,-363l143 19 4 194c8,126 45,297 69,426 6,30 20,70 6,78 -17,5 -21,-11 -32,-26l-79 -98c-21,-24 -35,-43 -56,-65l-168 -189c-10,-12 -20,-19 -30,-30l-57 -60c-11,-10 -18,-20 -28,-29 0,36 36,248 50,297 6,23 23,68 24,87l-161 -13zm-3940 -688l-11 137c-19,-9 -14,-30 -61,-40 -30,-7 -63,-4 -93,0l-17 184 161 -27 -11 106 -142 18c-7,1 -5,1 -10,3 -19,9 -19,167 -16,171 15,19 111,-19 160,-17l-9 98c-20,4 -59,4 -82,6 -82,9 -150,28 -227,41 11,-103 35,-202 42,-310 4,-54 6,-109 7,-164 1,-27 -4,-151 0,-166l309 -40zm2943 588c30,-178 9,-377 -22,-554 -70,-12 -116,10 -150,49l-28 -165 464 39 -21 101 -132 -14c0,91 9,196 22,285l48 255 -181 4zm-2358 -658l168 -37 -1 72c30,-15 54,-48 113,-53 165,-15 164,186 42,307 11,40 110,191 143,236 84,115 223,230 357,286 -26,15 -100,16 -133,11 -91,-16 -211,-120 -270,-175 -88,-82 -163,-192 -235,-287 -12,-16 -25,-26 -23,-54 35,-25 67,-16 102,-68 25,-37 37,-88 15,-135 -26,-53 -81,-33 -103,5 -41,74 -9,475 -6,536 -182,0 -152,1 -325,18l-53 -212 -163 14c-8,31 -26,73 -36,107 -12,38 -16,81 -27,116l-174 35c15,-24 34,-48 50,-74 53,-84 90,-162 128,-255 25,-60 48,-120 71,-181 9,-21 28,-73 29,-96 1,-35 -33,-53 -48,-78l174 -32c23,101 163,573 214,608 19,-175 44,-444 -9,-614zm1723 -68c83,-5 148,28 199,65 39,28 104,89 126,130 -54,4 -245,-5 -281,-47 -38,-44 -45,-83 -44,-148zm-615 -33c2,71 -8,149 2,220 56,5 135,4 183,-14l-27 -174 160 3c5,47 -3,126 -2,178 0,61 0,122 5,181 12,174 37,182 61,304 -30,-4 -64,-13 -97,-17 -20,-3 -85,-7 -98,-14 5,-120 10,-228 2,-348 -51,-8 -135,-8 -186,1l19 342 -175 16c9,-111 24,-222 25,-334 1,-111 -22,-216 -30,-323l158 -21zm-639 53c155,4 308,-27 464,-29l-40 125c-38,-21 -85,-36 -127,0 -12,81 -14,200 -9,283 3,76 35,252 35,255l-185 26c20,-99 34,-160 36,-268 1,-68 6,-229 -5,-289 -35,-8 -71,1 -97,16 -25,15 -38,34 -60,53l-12 -172zm1087 420c14,5 30,22 48,35 17,13 27,20 45,31 66,41 266,149 330,91 51,-46 16,-191 -21,-232 -48,-52 -190,-25 -268,-36 -31,-5 -126,-60 -142,-88 -10,-20 -16,-177 -12,-208 14,-118 47,-102 172,-207 23,-19 28,-13 61,-9 88,11 182,27 268,35l12 243c-24,-20 -55,-76 -136,-122 -38,-23 -175,-59 -219,-31 -22,19 -42,211 80,262 47,19 103,24 157,29 33,2 145,-1 161,19 60,72 67,195 21,290 -18,36 -127,203 -164,203 -110,0 -205,-19 -289,-65 -118,-63 -96,-89 -104,-240z"/>
   <path class="fil2" d="M6057 799c3,4 3,3 6,8l-87 -7c-8,-17 -11,-47 -13,-70 43,12 69,37 94,69zm-5176 -472c-30,264 -118,613 -48,871l-229 38c13,-86 76,-360 62,-431 -96,-4 -199,22 -286,46 -15,71 -15,383 -36,417 -9,11 -182,68 -206,74 12,-70 32,-143 45,-213 30,-162 52,-281 66,-447 3,-40 5,-79 6,-119 1,-35 -4,-89 0,-119l188 -61 -45 339c77,-4 232,-32 284,-69l8 -297 191 -29zm-12 846c-38,-119 -21,-328 -5,-457 8,-73 17,-146 29,-218 10,-68 30,-153 33,-220 -38,4 -252,35 -270,46l-9 303c-55,23 -141,43 -206,50 6,-57 17,-116 25,-174 7,-53 22,-123 22,-176 -37,7 -249,74 -271,89 -1,212 -4,321 -38,533 -12,81 -28,161 -45,240 -10,49 -50,196 -49,235 16,-3 288,-92 294,-106l32 -403c8,-8 0,-2 9,-7 31,-19 176,-38 207,-40 -6,126 -72,395 -71,438 37,-3 318,-48 336,-58 0,-23 -16,-49 -23,-75 58,-4 200,-53 299,-50 -10,14 -12,11 -12,36 50,-10 277,-51 304,-65 9,-29 8,-78 19,-115 11,-35 24,-70 33,-104l119 -11c25,51 29,159 50,213 39,3 141,-14 190,-16 67,-2 135,-1 201,-6l-12 -238 134 158c115,126 288,296 478,251 25,-7 86,-29 95,-57l-129 -70c-23,-13 -42,-25 -63,-38 -23,-14 -40,-29 -62,-40 11,-6 183,-28 194,-29 1,-26 -22,-93 -28,-123 -32,-149 -25,-278 -18,-429 64,-5 83,20 106,59l30 -82c13,93 10,202 4,296 -3,56 -29,244 -23,283 88,-11 161,-21 253,-22l-21 -345 119 -4c2,124 -6,237 -10,358 63,3 111,2 172,13 52,10 106,32 151,39 -1,-27 -30,-64 -43,-87 10,1 10,3 21,12 6,5 14,11 22,16 14,10 27,19 42,29 27,18 60,35 95,48 85,33 156,38 254,38 13,-3 100,-110 109,-121 56,-74 91,-141 101,-243 9,-99 -27,-89 17,-147 27,-36 45,-66 109,-67 8,93 19,186 27,279 12,133 -27,255 -21,282l288 -7c4,-25 -26,-91 -35,-119 -13,-42 -24,-83 -33,-127 -18,-94 -31,-191 -29,-289 26,1 90,4 109,14 5,8 3,-4 4,15 1,42 -8,53 1,141 8,89 25,197 105,236 36,18 99,29 145,22 93,-13 167,-71 181,-159 7,-48 3,-110 -10,-154 -18,-60 -61,-78 -100,-59 72,-4 88,24 99,90 32,195 -112,302 -267,241 -24,-9 -47,-18 -57,-35 -54,-94 -86,-260 -56,-374 12,-45 39,-55 93,-88 54,-32 62,-47 136,-37 50,6 99,18 142,36 178,77 218,343 175,526 -8,38 -6,39 -37,55l-88 47c-58,34 -12,24 -110,20 16,-24 30,-29 47,-45l42 -42c86,-77 127,-252 57,-382 -15,-29 -56,-79 -76,-95 -33,-27 -65,-49 -125,-41 -47,6 -94,32 -116,56 -30,33 -36,83 -34,139l9 -17c2,-5 4,-11 5,-16 4,-12 8,-22 14,-33 10,-22 21,-37 34,-54 104,-132 276,15 301,134 22,105 -37,206 -82,266 -53,69 -135,113 -216,145 34,37 207,72 246,44 35,-25 77,-54 122,-71 19,-7 16,-2 24,-17 53,-97 45,-231 28,-338 -10,-64 -27,-124 -58,-177 -11,-18 -23,-34 -32,-51 13,7 19,18 29,29 71,76 111,151 128,262 16,100 33,201 20,302 -3,31 -14,70 -15,97l251 17c0,-32 -62,-203 -66,-298 40,37 115,120 151,163 57,67 121,131 172,202 5,7 17,28 22,33 15,14 73,17 94,19 -23,-183 -116,-530 -95,-696 18,29 70,253 80,304 21,106 37,229 42,340 100,8 204,23 301,48 28,8 66,24 89,28 0,-35 -22,-198 -38,-218 -23,-16 -127,-16 -165,-27l-10 -69c45,-1 130,29 157,27 3,-49 -27,-181 -38,-232 -16,-77 -26,-157 -42,-235 -48,-19 -567,-104 -618,-99 0,64 86,235 89,308 -10,-18 -89,-94 -111,-119 -63,-74 -130,-146 -192,-221 -13,-16 -7,-20 -35,-21 -76,-4 -154,-6 -230,-3l-6 22c-42,-62 -162,-89 -236,-95 -83,-7 -105,19 -183,67 -17,10 -37,25 -53,32l23 -102 -556 -43c-10,27 35,241 37,272 -75,-127 -65,-56 -70,-207 -12,-307 25,-262 -115,-280l-209 -26c-57,-7 -49,2 -85,28 -45,33 -88,70 -130,105 -77,64 -53,355 -19,395 26,29 91,77 149,91 115,27 241,-36 280,72 11,30 16,77 3,102 -85,20 -202,-45 -258,-78 -43,-25 -63,-43 -98,-69 -32,-24 -61,-54 -89,-78l20 316c-88,-127 -83,-536 -67,-695l-237 -4c-6,43 16,139 20,186l-103 3 -2 -226c-57,3 -114,16 -171,23 -135,17 -412,35 -542,38l24 328 44 -54c7,-7 13,-12 19,-19 32,-36 44,-29 84,-55 15,48 8,202 5,258 -6,86 -15,151 -35,229 -49,-25 -168,-201 -205,-274 52,-74 90,-151 68,-273 -25,-140 -125,-114 -229,-101l-1 -37 -258 53c-1,29 24,71 32,108 21,103 20,313 4,409 -22,-26 -151,-461 -164,-525 -37,6 -268,45 -283,55 -3,43 100,86 90,130 -29,126 -148,391 -215,480l4 -71 -165 29c7,-115 8,-65 144,-92 5,-1 7,-2 11,-3 15,-6 -1,4 8,-5 9,-12 39,-410 42,-460l-387 51c-6,33 2,155 2,197 -1,126 -11,251 -33,374 -9,47 -32,133 -31,177zm276 -596c15,1 55,8 69,12 17,5 32,27 39,42l-117 23 9 -77zm5033 666c-78,-21 -152,-37 -236,-48 -78,-10 -73,12 -81,-61 -13,-116 -30,-255 -55,-366 -18,-81 -48,-171 -60,-224l312 61 22 128c-17,-28 -107,-77 -166,-81l35 183 156 25 17 104 -159 -29c3,33 22,150 36,170 19,28 119,25 160,36l19 102zm-4125 -648c0,-25 1,-58 8,-81 6,-20 26,-41 45,-23 22,22 -1,87 -53,104zm3165 513c8,-134 16,-243 -2,-377 -26,-193 -100,-219 -125,-276l135 5 236 270c9,9 17,15 26,24 9,10 14,17 23,27 17,18 82,87 106,98 -10,-101 -52,-271 -84,-362l144 19 3 194c9,126 45,297 70,426 5,30 19,70 6,77 -18,6 -22,-10 -33,-25l-79 -98c-20,-24 -35,-44 -56,-65l-168 -190c-10,-11 -19,-18 -29,-29l-58 -60c-10,-10 -18,-20 -28,-29 0,36 37,248 50,297 6,23 23,68 24,87l-161 -13zm-3940 -688l-11 137c-19,-9 -14,-30 -60,-40 -31,-7 -64,-4 -94,0l-16 184 160 -27 -11 106 -141 17c-7,2 -5,2 -10,4 -20,8 -20,166 -16,171 14,19 110,-20 160,-17l-10 98c-19,4 -59,4 -82,6 -81,9 -149,28 -227,41 11,-103 35,-202 43,-310 3,-54 5,-109 6,-164 1,-27 -4,-152 0,-166l309 -40zm2943 588c30,-178 9,-378 -22,-554 -70,-12 -115,10 -149,49l-29 -165 464 39 -21 101 -132 -15c0,92 10,197 22,286l48 254 -181 5zm-2358 -658l168 -37 0 72c29,-16 53,-49 113,-54 164,-14 163,187 41,308 11,40 111,191 143,236 84,115 224,230 357,286 -26,15 -100,16 -133,10 -90,-15 -211,-119 -270,-174 -88,-82 -163,-192 -235,-287 -12,-16 -25,-26 -23,-54 35,-25 67,-16 102,-68 25,-38 37,-89 15,-135 -25,-53 -81,-33 -102,5 -41,74 -10,475 -7,536 -182,0 -152,1 -325,18l-52 -212 -164 14c-8,31 -26,73 -36,107 -11,37 -16,81 -27,116l-174 35c15,-25 34,-49 50,-74 53,-84 90,-163 128,-255 25,-60 49,-120 72,-181 8,-21 27,-74 28,-96 1,-35 -33,-53 -48,-78l175 -32c22,101 162,573 213,608 19,-175 44,-444 -9,-614zm1723 -68c83,-5 148,27 199,65 39,28 104,88 126,130 -53,4 -245,-5 -281,-47 -38,-44 -45,-84 -44,-148zm-615 -33c3,71 -7,149 3,220 55,4 134,3 182,-14l-26 -174 159 2c5,48 -2,127 -2,179 0,60 1,121 5,181 12,174 37,182 61,303 -30,-3 -64,-12 -96,-16 -21,-3 -86,-7 -98,-14 5,-120 9,-228 1,-348 -51,-8 -135,-9 -186,1l20 342 -176 16c10,-112 24,-222 25,-334 2,-111 -22,-217 -30,-323l158 -21zm-639 53c155,4 308,-27 464,-29l-40 125c-38,-21 -85,-36 -127,-1 -12,82 -14,201 -9,284 4,75 35,252 35,255l-185 25c20,-99 35,-159 36,-267 2,-68 6,-229 -5,-289 -35,-9 -71,0 -97,16 -25,15 -37,34 -60,53l-12 -172zm1087 420c14,5 31,22 48,35 17,13 28,20 45,31 66,41 266,149 330,91 51,-46 17,-191 -21,-232 -48,-52 -190,-25 -267,-36 -32,-5 -127,-61 -142,-88 -11,-20 -17,-177 -13,-208 14,-119 47,-102 172,-207 23,-19 28,-13 62,-9 88,11 181,27 268,35l11 243c-24,-20 -54,-76 -135,-123 -39,-22 -176,-58 -220,-30 -22,19 -42,211 81,262 46,19 102,24 156,28 33,3 145,0 161,20 61,72 68,194 21,289 -18,37 -127,203 -164,203 -110,0 -204,-18 -289,-64 -118,-63 -96,-89 -104,-240z"/>
   <path class="fil3" d="M4801 588c-54,13 -74,37 -98,75 20,15 108,-50 98,77 -8,94 -78,72 -107,67 -18,-8 -35,-37 -47,-61 -14,-28 -18,-54 -21,-87 -2,-56 4,-106 34,-139 22,-24 69,-50 116,-56 60,-8 92,14 125,41 20,16 61,66 76,95 70,130 29,305 -57,382l-42 42c-17,16 -31,21 -47,45 98,4 52,14 110,-20l88 -47c31,-16 29,-17 37,-55 43,-183 3,-449 -175,-526 -43,-18 -92,-30 -142,-36 -74,-10 -82,5 -136,37 -54,33 -81,43 -93,88 -30,114 2,280 56,374 10,17 33,26 57,35 155,61 299,-46 267,-241 -11,-66 -27,-94 -99,-90z"/>
   <path class="fil4" d="M6178 1243l-19 -102c-41,-11 -141,-8 -160,-36 -14,-20 -33,-137 -36,-170l159 29 -17 -104 -156 -25 -35 -183c59,4 149,53 166,81l-22 -128 -312 -61c12,53 42,143 60,224 25,111 42,250 55,366 8,73 3,51 81,61 84,11 158,27 236,48zm-5488 -887l-8 297c-52,37 -207,65 -284,69l45 -339 -188 61c-4,30 1,84 0,119 -1,40 -3,79 -6,119 -14,166 -36,285 -66,447 -13,70 -33,143 -45,213 24,-6 197,-63 206,-74 21,-34 21,-346 36,-417 87,-24 190,-50 286,-46 14,71 -49,345 -62,431l229 -38c-70,-258 18,-607 48,-871l-191 29zm279 104c-4,14 1,139 0,166 -1,55 -3,110 -6,164 -8,108 -32,207 -43,310 78,-13 146,-32 227,-41 23,-2 63,-2 82,-6l10 -98c-50,-3 -146,36 -160,17 -4,-5 -4,-163 16,-171 5,-2 3,-2 10,-4l141 -17 11 -106 -160 27 16 -184c30,-4 63,-7 94,0 46,10 41,31 60,40l11 -137 -309 40zm620 137l36 108 -91 8 55 -116zm66 203l52 212c173,-17 143,-18 325,-18 -3,-61 -34,-462 7,-536 21,-38 77,-58 102,-5 22,46 10,97 -15,135 -35,52 -67,43 -102,68 -2,28 11,38 23,54 72,95 147,205 235,287 59,55 180,159 270,174 33,6 107,5 133,-10 -133,-56 -273,-171 -357,-286 -32,-45 -132,-196 -143,-236 122,-121 123,-322 -41,-308 -60,5 -84,38 -113,54l0 -72 -168 37c53,170 28,439 9,614 -51,-35 -191,-507 -213,-608l-175 32c15,25 49,43 48,78 -1,22 -20,75 -28,96 -23,61 -47,121 -72,181 -38,92 -75,171 -128,255 -16,25 -35,49 -50,74l174 -35c11,-35 16,-79 27,-116 10,-34 28,-76 36,-107l164 -14zm677 -498l12 172c23,-19 35,-38 60,-53 26,-16 62,-25 97,-16 11,60 7,221 5,289 -1,108 -16,168 -36,267l185 -25c0,-3 -31,-180 -35,-255 -5,-83 -3,-202 9,-284 42,-35 89,-20 127,1l40 -125c-156,2 -309,33 -464,29zm481 -32c8,106 32,212 30,323 -1,112 -15,222 -25,334l176 -16 -20 -342c51,-10 135,-9 186,-1 8,120 4,228 -1,348 12,7 77,11 98,14 32,4 66,13 96,16 -24,-121 -49,-129 -61,-303 -4,-60 -5,-121 -5,-181 0,-52 7,-131 2,-179l-159 -2 26 174c-48,17 -127,18 -182,14 -10,-71 0,-149 -3,-220l-158 21zm606 452c8,151 -14,177 104,240 85,46 179,64 289,64 37,0 146,-166 164,-203 47,-95 40,-217 -21,-289 -16,-20 -128,-17 -161,-20 -54,-4 -110,-9 -156,-28 -123,-51 -103,-243 -81,-262 44,-28 181,8 220,30 81,47 111,103 135,123l-11 -243c-87,-8 -180,-24 -268,-35 -34,-4 -39,-10 -62,9 -125,105 -158,88 -172,207 -4,31 2,188 13,208 15,27 110,83 142,88 77,11 219,-16 267,36 38,41 72,186 21,232 -64,58 -264,-50 -330,-91 -17,-11 -28,-18 -45,-31 -17,-13 -34,-30 -48,-35zm631 -219c34,-39 79,-61 149,-49 31,176 52,376 22,554l181 -5 -48 -254c-12,-89 -22,-194 -22,-286l132 15 21 -101 -464 -39 29 165zm1168 605l161 13c-1,-19 -18,-64 -24,-87 -13,-49 -50,-261 -50,-297 10,9 18,19 28,29l58 60c10,11 19,18 29,29l168 190c21,21 36,41 56,65l79 98c11,15 15,31 33,25 13,-7 -1,-47 -6,-77 -25,-129 -61,-300 -70,-426l-3 -194 -144 -19c32,91 74,261 84,362 -24,-11 -89,-80 -106,-98 -9,-10 -14,-17 -23,-27 -9,-9 -17,-15 -26,-24l-236 -270 -135 -5c25,57 99,83 125,276 18,134 10,243 2,377z"/>
   <path class="fil5" d="M3911 477c-22,-42 -87,-102 -126,-130 -51,-38 -116,-70 -199,-65 -1,64 6,104 44,148 36,42 228,51 281,47z"/>
   <path class="fil6" d="M591 581c-19,2 -12,5 0,-83l8 -28c3,-51 0,-120 2,-177 -7,-5 -47,-44 -52,-53l-6 5c8,9 6,7 4,41 -1,16 -2,30 -3,46 -2,30 -8,61 -12,90 -7,51 -22,129 -23,178l60 -13c1,0 11,-2 11,-2l7 -3c1,0 3,-1 4,-1z"/>
   <path class="fil5" d="M1136 654l117 -23c-7,-15 -22,-37 -39,-42 -14,-4 -54,-11 -69,-12l-9 77z"/>
   <polygon class="fil5" points="1534,713 1625,705 1589,597 "/>
   <path class="fil6" d="M1047 345l-18 2c2,-43 0,-37 -13,-73 -6,-16 -15,-48 -25,-61l-18 141c19,-1 62,-2 74,-9z"/>
   <path class="fil5" d="M2053 595c52,-17 75,-82 53,-104 -19,-18 -39,3 -45,23 -7,23 -8,56 -8,81z"/>
   <path class="fil5" d="M5976 800l87 7c-3,-5 -3,-4 -6,-8 -25,-32 -51,-57 -94,-69 2,23 5,53 13,70z"/>
   <path class="fil6" d="M5350 491c13,19 47,57 63,72l-44 -156 18 2c-7,-6 0,-4 -15,-5 -12,16 -17,63 -22,87z"/>
   <path class="fil7" d="M511 1259c-2,-23 29,-191 37,-218l-27 5c-8,18 -15,149 -17,186 -1,25 3,22 7,27z"/>
   <path class="fil7" d="M591 581c10,-20 3,-85 8,-111l-8 28c-12,88 -19,85 0,83z"/>
   <path class="fil6" d="M2157 227c-8,-14 -21,-27 -35,-35l-1 36 36 -1z"/>
   <path class="fil1" d="M5037 1608l15 -4 1 -27c14,-7 53,-7 67,-5l6 2c3,-6 20,107 19,113 5,7 12,70 13,79l-40 -1 -1 13 52 4c2,1 7,1 9,1l7 3c11,-2 23,2 34,3l28 4c5,-1 2,1 4,-1 -6,-14 -2,-11 -19,-15 -33,-7 -27,-2 -32,-29l-12 -71c-5,-32 -11,-65 -15,-98 6,0 8,0 11,3 13,-1 45,8 57,13 13,5 11,8 13,23 3,24 1,10 13,20 6,-4 2,1 3,-6l-3 -83 -15 1 0 13 -2 5c-40,-1 -134,-13 -180,-20l-17 -4c-6,-2 -4,-1 -9,-20l-11 -4c-3,1 -2,0 -3,2l7 86zm-3610 40l-13 1 -85 10c1,-8 11,-70 15,-79 1,-2 1,-2 2,-4l30 -7 4 -14c-37,5 -75,12 -115,14l1 13 32 -1c-2,17 -18,129 -23,135l1 2 -12 60c-27,14 -31,-3 -39,23 19,-3 38,-6 58,-9 15,-2 49,-2 60,-6l-1 -12 -29 -1c-2,-12 8,-74 11,-88 3,-2 -1,0 4,-2l28 -5c20,-4 83,-16 96,-15l-17 96 -32 7 -5 14c14,0 40,-5 56,-7 21,-3 40,-4 61,-6l-1 -13 -31 -1c1,-26 22,-180 30,-195 8,-3 15,-4 24,-6 11,-3 10,-7 13,-16l-116 13 1 12 30 1c0,6 -7,69 -11,78 -1,3 0,2 -2,4l-25 4zm318 37c-14,5 -16,2 -20,17 -4,14 -3,17 -16,22 -17,6 -42,11 -62,12l11 -95c5,-2 10,-3 27,-3 10,0 18,0 27,2l-2 22 9 3c4,-5 4,-9 6,-14 1,-5 3,-10 4,-15 2,-10 5,-19 7,-29l3 -11c-37,5 16,21 -79,27 2,-16 9,-71 15,-83 20,-1 42,-2 62,4l-3 24 12 3 18 -74c-33,4 -3,17 -32,20 -17,3 -29,4 -46,6l-92 8 1 13 31 1c0,22 -22,188 -28,195 -16,13 -31,-5 -37,22 22,0 49,-6 74,-8 21,-2 57,-7 77,-5l-2 18 13 1c5,-29 17,-58 22,-83zm217 -125c-5,22 -23,39 -44,46l-28 6c1,-15 8,-85 13,-94 32,-3 68,7 59,42zm-116 54l1 2 -14 103 -35 8 -3 13c39,-5 76,-7 117,-10l-1 -13 -32 -2c0,-13 5,-77 9,-85 6,-3 17,-4 25,-4l69 77c26,27 27,28 53,23 -3,-6 0,-1 -4,-6l-18 -23c-13,-18 -50,-76 -53,-92 15,-8 35,-29 43,-46 13,-26 5,-48 -19,-55 -32,-9 -124,1 -160,5l0 13 32 2c1,11 -6,85 -10,90zm257 -23c7,-110 170,-144 178,-7 0,30 -9,57 -25,75 -25,30 -67,42 -104,26 -36,-17 -56,-60 -49,-94zm224 -14c6,-41 -15,-72 -38,-86 -82,-50 -223,11 -231,118 -8,128 159,129 229,56 19,-21 35,-49 40,-88zm50 -93l7 2c1,28 -6,114 -10,148 -5,50 3,46 -28,50 -12,2 -11,4 -13,16 51,-5 97,-7 149,-7l-1 19 14 1c5,-28 10,-56 17,-82 -33,4 -7,28 -34,37 -18,6 -41,8 -61,9l5 -94c1,0 2,0 2,-1 0,0 1,0 1,0 0,0 26,-4 51,1l-2 22 11 4c5,-7 14,-56 15,-67 -13,1 -12,-2 -15,8 -4,10 -2,8 -15,10 -14,2 -31,4 -47,5l5 -47 3 -35c16,-3 50,-1 63,6l0 25 12 3 12 -74 -8 1c-10,4 -7,5 -10,16 -48,8 -110,5 -149,9l1 14 25 1zm224 -8c-7,14 -14,23 -13,44 2,49 60,64 79,85 23,27 3,61 -28,65 -19,2 -33,-5 -41,-14 -10,-13 -9,-24 -9,-45l-15 -2 0 11 0 16c-3,14 -3,30 -6,45 -2,12 -4,25 -6,38l14 -4 8 -30c31,2 51,9 81,-5 23,-11 33,-23 43,-46 15,-74 -33,-83 -74,-113 -25,-18 -15,-47 15,-53 16,-2 28,3 36,10 12,11 7,20 8,39l14 5c2,-15 2,-34 4,-49 3,-16 6,-30 8,-45l-14 1 -6 24c-18,-1 -38,-5 -57,0 -21,4 -30,15 -41,23zm296 38c62,-10 74,102 9,107 -62,4 -82,-96 -9,-107zm-72 55c-2,40 24,62 63,64 37,1 60,-10 75,-31 8,-11 13,-24 14,-40 1,-23 -7,-29 -13,-42 -6,-4 -11,-9 -20,-12 -56,-21 -113,9 -119,61zm185 -2c2,13 1,36 -1,50 -14,6 -18,-3 -19,13l49 -1c2,0 8,0 10,0l8 -3c-2,-10 -8,-6 -19,-8l-1 -50c55,0 14,17 39,20l4 -45c-12,0 -8,3 -13,11l-30 3 2 -44c65,0 20,17 47,22l3 -39 1 -10c-17,4 -5,2 -13,14 -12,1 -29,1 -42,2 -9,0 -35,-2 -42,1 2,15 7,3 17,10 4,4 3,49 0,54zm244 -107c16,-9 23,6 27,-18l-104 0 2 13c7,1 21,2 25,8 12,17 63,213 76,227 12,-25 27,-63 37,-91l27 -69c3,-9 5,-16 10,-22 1,1 0,0 2,4 0,0 1,1 1,1l8 19c17,44 49,126 67,160l43 -132c7,-22 15,-43 23,-65 16,-45 11,-32 29,-37 8,-2 3,3 5,-5 1,-1 1,-7 1,-8l-89 -2c1,10 0,13 10,14 7,2 13,2 20,3 0,1 0,2 0,2 1,6 1,4 -2,19l-28 110c-2,7 -3,11 -7,17l-53 -142 23 -3 1 -12 -97 -2c3,15 -1,14 32,18 -3,18 -18,53 -24,71 -9,23 -17,44 -26,68 -8,-11 -17,-57 -22,-73 -3,-13 -7,-26 -10,-38 -2,-7 -3,-12 -5,-19 -2,-4 -5,-12 -2,-16zm352 94c2,-10 9,-28 13,-38 4,-12 7,-29 13,-38l29 78 -55 -2zm-13 -22c-5,23 -19,53 -27,77 -4,13 -10,25 -14,37 -8,22 -19,7 -33,16l-1 13c27,-5 64,-1 92,1 -2,-20 -2,-12 -28,-18 -1,-13 13,-71 18,-83l67 -1c6,9 34,80 33,87l-29 4 -2 12c39,2 75,-1 115,4 -4,-32 -23,-3 -35,-27 -16,-31 -71,-162 -77,-189 7,-4 14,-1 21,-6l2 -11 -102 -2 1 12 23 5 -24 69zm294 -60c29,3 57,19 56,49 -4,33 -29,43 -64,43l-4 -94 12 2zm-55 24c3,13 10,154 8,168 -10,4 -22,3 -33,4l-2 13c19,1 41,0 59,1 20,0 39,2 58,4 -2,-14 0,-14 -14,-16 -7,-1 -16,-1 -21,-5 -4,-6 -7,-72 -6,-84l25 0c8,12 7,9 15,17l95 96c13,10 13,1 25,5 0,0 4,-4 4,-4 -16,-12 -89,-113 -96,-130 19,-8 50,-43 35,-74 -17,-35 -66,-27 -78,-36l-111 -3 2 12c9,4 24,2 32,7 4,6 3,17 3,25zm422 -33l-3 13c-9,-1 -27,-6 -40,-8 -65,-10 -136,6 -157,72 -10,33 -3,51 5,81 4,5 11,24 36,45 36,29 78,38 125,38 42,0 53,-10 68,-13 4,-6 7,-16 8,-25 -29,12 -40,18 -78,16 -62,-5 -117,-52 -124,-111 -1,-7 -1,-15 -1,-22l3 -15c3,-5 1,-2 4,-5 0,-35 77,-70 134,-25 26,20 13,16 23,45l13 5c1,-16 -3,-67 -1,-102 -5,-4 -2,-3 -9,-3l-5 2 -1 12zm382 147c0,-5 15,-69 19,-74l35 79 -54 -5zm-236 -108c20,-3 50,17 52,28 22,17 0,73 -55,62l-8 -92c4,0 4,-1 7,0 4,1 2,1 4,2zm-53 25c4,9 9,67 7,77 3,4 2,4 3,11l6 78 -33 1 -1 8c1,8 4,6 28,7 31,1 58,4 89,7 -2,-14 0,-14 -13,-16 -7,-2 -18,-3 -23,-5 -4,-8 -10,-70 -11,-85l26 1c4,7 9,11 16,18 6,5 11,12 16,18l51 50c4,4 4,4 8,9 17,18 27,29 53,24l0 -6 66 6c3,0 8,1 9,1 10,1 5,2 6,-3l-3 -10 -27 -6c-1,-13 7,-71 12,-81l65 2c5,5 40,79 43,90l-28 0 -3 7 1 3c0,7 5,5 11,4 37,2 70,6 105,11 -4,-21 -5,-10 -14,-17 -22,-3 -19,-2 -27,-17l-67 -136c-5,-10 -25,-47 -23,-55l20 -1 0 -14c-33,0 -70,-5 -103,-8l3 13c6,3 16,3 23,7 -4,27 -45,175 -54,189 -13,1 -22,1 -30,5l-66 -88c-6,-8 -17,-21 -21,-28 3,-4 9,-8 12,-11 32,-24 38,-72 -13,-91 -27,-10 -127,-20 -159,-17 5,12 -1,12 14,14 18,3 28,-3 26,34zm521 163c5,6 4,21 5,30l1 15 -32 1 -2 13c2,0 7,1 8,1l4 1c1,1 1,1 2,1 14,-4 55,3 72,5l36 5c-4,-19 2,-13 -40,-22l-15 -94c17,1 34,4 49,8 10,4 10,5 12,17 3,15 -1,13 12,18 9,2 4,0 5,-6l-5 -71c-17,-1 -14,0 -15,18 -16,2 -45,-1 -61,-2l-10 -83 32 5c30,7 41,8 45,27 2,16 1,15 17,20 -2,-29 -6,-55 -6,-86l-14 1 -2 21c-30,2 -118,-13 -156,-15l4 14 34 7c4,25 22,133 20,151z"/>
   <path class="fil1" d="M5031 1605l15 -3 1 -27c14,-7 53,-7 67,-5l6 2c4,-6 20,107 19,113 5,7 12,70 13,79l-40 -1 -1 13 52 4c2,0 7,1 9,1l7 3c12,-2 23,2 34,3l29 4c5,-1 1,1 4,-1 -7,-14 -3,-11 -20,-15 -32,-7 -27,-2 -32,-29l-12 -72c-5,-32 -10,-64 -15,-98 7,1 8,0 11,4 13,-1 45,8 57,13 13,5 12,7 13,23 3,24 1,10 13,20 6,-4 2,1 4,-6l-4 -83 -15 0 0 14 -2 5c-40,-1 -134,-13 -180,-20l-17 -4c-6,-2 -4,-1 -8,-20l-11 -4c-4,1 -3,0 -4,2l7 85zm-3609 40l-14 2 -85 9c1,-7 11,-69 15,-78 1,-3 1,-2 2,-4l30 -8 4 -13c-37,5 -75,12 -115,13l1 13 32 0c-2,17 -18,129 -23,135l1 2 -12 60c-26,14 -31,-3 -39,23 19,-3 38,-6 58,-9 15,-2 49,-2 60,-7l-1 -11 -29 -1c-2,-12 8,-74 11,-88 3,-2 0,0 5,-2l27 -5c20,-4 83,-16 96,-15l-17 96 -32 7 -5 14c14,0 41,-6 56,-7 21,-3 40,-4 61,-6l-1 -13 -31 -1c1,-26 22,-180 30,-195 8,-4 15,-4 24,-6 11,-3 10,-7 13,-17l-116 14 1 12 30 1c0,5 -7,69 -10,78 -2,3 -1,2 -3,4l-24 3zm317 38c-14,5 -15,2 -20,17 -4,13 -3,17 -16,22 -17,6 -42,10 -62,12l11 -95c5,-2 11,-3 27,-3 10,0 18,0 27,1l-2 23 10 2c3,-4 4,-8 5,-13 1,-5 3,-10 4,-15 3,-10 5,-19 8,-29l2 -11c-37,5 16,21 -79,27 2,-17 10,-71 15,-83 20,-1 42,-3 62,3l-3 25 12 3 18 -74c-33,4 -3,17 -32,20 -17,2 -29,4 -46,6l-92 8 1 13 31 1c0,21 -21,188 -28,195 -16,13 -31,-5 -37,22 22,-1 49,-7 74,-9 21,-1 57,-6 77,-4l-1 18 12 1c5,-29 17,-58 22,-83zm217 -125c-5,22 -23,38 -44,45l-28 7c1,-16 8,-85 13,-94 32,-4 68,7 59,42zm-116 54l1 2 -13 103 -36 8 -3 13c40,-6 76,-7 117,-11l-1 -12 -32 -2c0,-13 5,-78 10,-85 5,-3 16,-4 24,-4l69 77c26,27 27,28 53,23 -3,-6 0,-1 -4,-6l-18 -23c-12,-19 -50,-76 -53,-92 15,-8 36,-29 43,-46 13,-26 5,-48 -19,-55 -31,-10 -123,1 -160,5l0 13 32 2c1,11 -6,85 -10,90zm257 -24c8,-109 170,-143 178,-7 0,31 -9,58 -24,76 -26,30 -68,42 -105,26 -36,-17 -56,-61 -49,-95zm224 -13c6,-41 -14,-72 -38,-86 -82,-51 -223,10 -230,118 -9,128 158,129 228,56 20,-21 35,-49 40,-88zm50 -93l8 2c0,28 -7,114 -10,148 -6,50 2,46 -29,50 -12,2 -11,4 -13,15 51,-4 97,-6 149,-6l0 19 13 1c5,-28 11,-56 18,-82 -34,4 -8,28 -35,37 -18,6 -41,7 -61,9l6 -94c0,0 1,-1 1,-1 0,0 1,0 2,0 0,0 25,-4 50,1l-2 22 12 4c4,-7 13,-56 14,-68 -13,2 -12,-1 -15,9 -4,10 -2,8 -15,10 -14,2 -31,4 -47,4l5 -46 3 -36c16,-2 50,0 63,7l0 25 12 2 12 -73 -8 1c-10,4 -6,5 -10,16 -48,8 -110,5 -149,9l1 13 25 2zm224 -8c-7,14 -14,23 -13,44 2,49 61,64 80,85 23,27 2,61 -29,65 -18,2 -33,-5 -41,-15 -10,-13 -9,-23 -9,-44l-15 -3 1 11 -1 17c-3,14 -3,30 -6,45 -1,12 -4,25 -6,38l15 -4 7 -30c31,2 52,9 81,-5 23,-11 33,-23 43,-46 15,-74 -33,-84 -74,-113 -25,-18 -15,-48 16,-53 15,-3 27,3 35,10 12,11 7,20 8,39l14 5c2,-15 2,-34 5,-49 2,-16 5,-30 7,-46l-13 2 -7 24c-18,-1 -38,-5 -57,-1 -21,5 -30,16 -41,24zm296 38c62,-10 74,102 10,107 -63,4 -82,-96 -10,-107zm-72 54c-2,41 25,63 63,65 38,1 60,-11 76,-31 7,-11 13,-24 13,-40 1,-23 -7,-29 -12,-42 -7,-4 -12,-9 -21,-13 -56,-20 -113,10 -119,61zm185 -1c3,13 1,36 -1,50 -14,6 -17,-3 -19,13l49 -1c2,0 8,0 10,0l8 -3c-2,-10 -7,-7 -19,-8l-1 -50c55,-1 14,17 39,19l4 -44c-12,0 -7,3 -12,11l-31 3 2 -45c65,1 20,18 48,23l3 -39 0 -10c-17,4 -5,2 -13,14 -12,1 -29,1 -42,2 -8,0 -35,-2 -42,1 2,15 7,3 17,10 4,4 3,49 0,54zm244 -108c16,-8 23,7 28,-17l-105 -1 2 13c7,2 21,3 25,9 12,17 64,213 76,227 12,-25 27,-63 37,-91l28 -69c3,-9 4,-16 9,-22 1,1 1,0 2,4 1,0 1,1 1,1l8 19c18,43 49,126 67,160l44 -132c7,-22 14,-43 22,-65 16,-45 12,-32 29,-37 8,-3 3,2 6,-5 0,-1 0,-7 1,-8l-90 -2c2,10 0,13 10,14 7,1 13,2 20,3 0,1 0,1 0,2 1,6 2,4 -2,19l-28 110c-2,7 -3,11 -7,17l-53 -142 23 -3 1 -12 -97 -2c3,15 -1,14 32,18 -3,18 -18,53 -24,71 -9,23 -17,44 -26,67 -8,-10 -17,-56 -22,-73 -3,-12 -7,-25 -10,-37 -1,-7 -3,-12 -5,-19 -1,-5 -5,-13 -2,-17zm353 95c1,-11 8,-28 12,-38 4,-12 7,-29 13,-38l29 78 -54 -2zm-14 -22c-5,23 -19,53 -27,77 -4,13 -9,25 -14,37 -8,22 -19,7 -33,16l-1 13c27,-5 64,-1 92,1 -2,-20 -2,-12 -28,-18 -1,-13 14,-71 18,-83l67 -1c6,9 34,80 33,87l-28 4 -3 12c39,2 76,-1 115,4 -3,-32 -23,-3 -35,-27 -15,-31 -71,-162 -77,-189 7,-4 14,-1 22,-6l1 -11 -102 -2 1 12 24 5 -25 69zm294 -60c29,3 58,19 56,49 -4,33 -28,43 -64,43l-3 -94 11 2zm-54 24c2,13 9,154 7,168 -10,4 -22,3 -33,4l-1 13c18,1 40,0 59,1 19,0 38,2 58,4 -3,-14 -1,-14 -14,-16 -8,-1 -17,-1 -22,-5 -4,-6 -7,-72 -6,-84l25 0c9,12 7,9 15,16l95 97c13,9 13,1 25,5 1,-1 4,-4 5,-4 -17,-12 -90,-113 -97,-130 19,-8 50,-43 35,-74 -16,-36 -66,-28 -78,-36l-111 -3 2 12c10,4 25,1 32,7 4,5 3,17 4,25zm421 -33l-3 13c-8,-1 -27,-6 -39,-8 -66,-10 -137,6 -158,72 -10,33 -3,51 5,80 4,5 11,25 36,46 36,29 78,37 125,38 42,0 53,-11 69,-13 3,-6 6,-16 7,-25 -29,12 -40,18 -78,15 -62,-4 -117,-51 -124,-110 -1,-7 -1,-15 0,-22l2 -15c3,-5 1,-2 4,-5 1,-35 77,-70 135,-25 25,20 12,16 22,45l13 5c1,-16 -3,-67 -1,-102 -4,-4 -2,-3 -9,-3l-5 1 -1 13zm383 147c-1,-6 15,-69 18,-74l36 79 -54 -5zm-236 -108c19,-3 49,16 51,28 23,17 0,73 -55,62l-7 -93c3,0 3,0 6,1 4,1 3,0 5,2zm-53 25c3,9 8,67 6,77 3,4 2,4 3,11l6 78 -33 1 -1 8c1,8 4,6 28,6 32,1 58,5 89,7 -2,-13 0,-13 -13,-16 -7,-1 -17,-2 -23,-5 -4,-8 -9,-69 -10,-84l26 0c3,8 9,12 16,19 5,5 10,12 16,18l50 50c4,4 5,4 9,8 16,19 26,29 52,25l0 -6 67 6c2,0 7,1 9,1 9,0 4,2 5,-3l-3 -10 -27 -7c-1,-13 7,-70 12,-80l65 2c5,5 40,79 43,90l-28 0 -3 7 1 3c0,6 5,4 11,4 37,2 70,6 105,11 -4,-21 -5,-10 -14,-17 -22,-3 -18,-2 -27,-17l-67 -136c-4,-10 -24,-47 -23,-55l20 -1 1 -14c-34,0 -70,-5 -103,-8l2 12c6,4 16,4 23,8 -4,27 -45,175 -54,189 -12,0 -22,1 -30,5l-66 -88c-6,-8 -17,-21 -20,-29 2,-3 8,-8 11,-10 33,-24 38,-72 -12,-91 -28,-11 -127,-20 -160,-18 5,13 -1,13 14,15 18,3 28,-3 27,34zm520 162c5,7 5,22 6,31l0 15 -32 1 -1 13c1,0 6,0 7,1l5 1c0,0 1,1 1,1 14,-4 55,3 72,5l36 4c-4,-18 2,-12 -40,-22l-15 -93c17,1 34,4 49,8 10,3 11,5 13,16 2,16 -1,14 12,19 9,2 3,0 4,-6l-5 -71c-17,-1 -13,0 -15,18 -15,2 -44,-1 -60,-2l-11 -84 32 6c30,7 41,8 45,27 2,16 1,15 17,19 -2,-29 -6,-55 -6,-85l-14 0 -1 22c-31,2 -119,-14 -157,-15l4 14 34 6c4,26 22,134 20,151z"/>
   <path class="fil1" d="M5028 1602l14 -3 2 -28c14,-6 53,-7 67,-4l6 2c3,-6 20,106 19,112 5,8 12,70 13,79l-40 0 -1 13 52 4c1,0 7,1 9,1l7 3c11,-2 23,1 34,3l28 4c5,-1 1,0 4,-2 -7,-13 -3,-11 -19,-14 -33,-7 -27,-3 -32,-29l-12 -72c-5,-32 -11,-65 -15,-98 6,1 8,0 11,3 13,0 45,9 57,14 13,5 11,7 13,22 3,25 1,11 13,20 6,-4 1,1 3,-6l-3 -83 -15 1 -1 13 -1 5c-40,0 -134,-13 -180,-20l-17 -3c-6,-3 -4,-1 -9,-20l-11 -5c-3,2 -2,1 -3,2l7 86zm-3610 40l-13 1 -85 10c0,-8 10,-69 15,-78 1,-3 0,-2 2,-4l29 -8 5 -14c-37,5 -75,13 -115,14l0 13 32 0c-1,16 -17,129 -22,135l1 2 -12 60c-27,14 -31,-3 -40,22 20,-2 39,-6 59,-8 15,-2 49,-3 60,-7l-1 -11 -30 -1c-1,-12 9,-75 12,-88 3,-2 -1,-1 4,-3l28 -5c20,-3 82,-15 96,-14l-17 95 -33 8 -4 13c14,0 40,-5 56,-7 21,-2 40,-3 61,-5l-1 -13 -31 -1c1,-26 22,-180 30,-196 8,-3 15,-4 24,-6 11,-3 10,-6 13,-16l-116 14 1 12 30 1c0,5 -7,69 -11,77 -1,4 -1,3 -2,5l-25 3zm318 37c-14,5 -16,3 -20,18 -4,13 -3,17 -16,21 -17,6 -42,11 -63,12l12 -94c5,-3 10,-3 27,-3 10,-1 17,0 27,1l-2 22 9 3c4,-4 4,-8 6,-14 1,-5 2,-10 4,-15 2,-9 5,-19 7,-28l2 -11c-36,5 17,21 -78,27 2,-17 9,-71 15,-83 20,-1 42,-3 61,3l-2 25 12 2 17 -74c-32,4 -2,17 -31,21 -17,2 -29,4 -46,5l-92 9 1 13 31 1c0,21 -22,188 -28,194 -16,13 -31,-4 -38,23 23,-1 50,-7 75,-9 21,-1 57,-6 77,-5l-2 19 12 1c6,-30 18,-59 23,-84zm216 -125c-4,23 -22,39 -43,46l-28 7c1,-16 8,-85 13,-94 32,-4 67,7 58,41zm-116 54l1 3 -13 102 -35 9 -4 13c40,-6 76,-8 118,-11l-1 -13 -32 -1c-1,-13 5,-78 9,-85 6,-3 17,-4 25,-5l69 78c26,27 27,28 52,22 -2,-5 1,0 -3,-5l-18 -24c-13,-18 -50,-76 -53,-92 14,-7 35,-29 43,-45 13,-26 5,-48 -19,-55 -32,-10 -124,0 -161,5l0 13 33 1c1,12 -6,85 -11,90zm258 -23c7,-109 170,-143 178,-7 0,31 -10,58 -25,76 -25,29 -67,42 -104,25 -36,-16 -56,-60 -49,-94zm224 -13c6,-41 -15,-73 -38,-87 -82,-50 -223,11 -231,119 -9,128 159,129 229,55 19,-20 35,-48 40,-87zm50 -93l7 1c1,29 -6,115 -10,149 -5,50 2,46 -28,50 -12,2 -11,3 -13,15 51,-4 97,-7 149,-7l-1 19 13 2c5,-28 11,-57 18,-82 -34,3 -7,28 -34,37 -18,5 -41,7 -61,9l5 -94c1,-1 1,-1 2,-1 0,0 1,-1 1,-1 0,0 25,-3 51,2l-2 22 11 3c5,-6 14,-56 15,-67 -13,1 -12,-1 -15,8 -4,10 -3,8 -15,10 -15,2 -31,5 -47,5l4 -47 4 -35c15,-3 49,0 63,7l-1 24 13 3 12 -74 -8 1c-10,4 -7,5 -10,17 -48,7 -110,4 -149,9l1 13 25 2zm223 -8c-6,14 -13,23 -12,44 2,48 60,63 79,85 23,26 3,61 -28,65 -19,2 -33,-6 -41,-15 -11,-13 -10,-23 -9,-45l-15 -2 0 11 -1 17c-3,14 -3,30 -5,44 -2,13 -5,26 -6,39l14 -4 8 -31c30,3 51,10 80,-4 24,-11 33,-23 44,-46 15,-74 -33,-84 -74,-113 -25,-18 -15,-48 15,-53 15,-3 28,2 36,9 11,11 7,21 8,39l13 5c3,-14 3,-34 5,-48 3,-16 6,-30 8,-46l-14 2 -6 24c-18,-2 -39,-5 -57,-1 -21,5 -31,15 -42,24zm297 37c61,-9 74,103 9,107 -62,4 -82,-95 -9,-107zm-72 55c-3,41 24,62 63,65 37,1 60,-11 75,-32 8,-10 13,-23 14,-40 1,-22 -7,-29 -13,-42 -6,-3 -11,-9 -20,-12 -56,-20 -114,9 -119,61zm185 -1c2,13 0,36 -1,50 -14,6 -18,-3 -20,12l50 -1c2,0 8,1 9,1l9 -3c-3,-10 -8,-7 -20,-8l-1 -50c56,-1 15,17 40,19l4 -44c-12,0 -8,2 -13,11l-30 3 1 -45c66,1 21,17 48,23l3 -39 1 -10c-17,3 -6,2 -13,13 -12,2 -29,2 -42,2 -9,0 -35,-1 -43,2 2,15 8,3 18,10 4,4 3,49 0,54zm244 -108c16,-9 23,7 27,-17l-104 -1 2 13c7,2 21,2 25,8 12,17 63,213 76,228 12,-25 27,-63 37,-91l27 -70c3,-8 5,-15 10,-22 1,2 0,1 2,4 0,1 1,1 1,2l7 19c18,43 50,125 68,160l43 -132c7,-22 15,-44 22,-65 16,-45 12,-32 30,-38 8,-2 3,3 5,-5 1,-1 1,-6 1,-7l-89 -3c1,11 0,13 10,15 7,1 13,1 19,3 1,1 1,1 1,2 1,6 1,3 -2,19l-29 109c-2,7 -2,12 -6,18l-54 -142 24 -3 1 -13 -97 -1c3,14 -2,13 32,17 -3,19 -18,54 -24,72 -9,23 -17,44 -26,67 -8,-10 -18,-56 -22,-73 -3,-12 -7,-25 -10,-37 -2,-7 -3,-12 -6,-20 -1,-4 -4,-12 -1,-16zm352 94c2,-10 9,-27 12,-38 4,-11 7,-29 14,-37l29 78 -55 -3zm-13 -22c-5,24 -19,54 -27,78 -4,12 -10,24 -14,37 -8,21 -19,7 -33,16l-1 12c27,-4 64,0 92,1 -2,-19 -2,-11 -28,-18 -1,-12 13,-70 18,-82l67 -1c6,8 34,80 33,87l-29 3 -2 12c38,3 75,0 115,4 -4,-32 -23,-2 -35,-26 -16,-31 -71,-162 -77,-189 7,-4 14,-2 21,-6l2 -11 -102 -3 1 13 23 5 -24 68zm294 -60c29,4 57,19 56,50 -4,33 -29,43 -64,42l-4 -93 12 1zm-55 24c3,14 10,154 7,169 -9,4 -21,3 -32,3l-2 14c19,1 41,0 59,0 20,1 39,3 58,4 -2,-13 0,-13 -14,-15 -7,-1 -17,-1 -21,-5 -4,-6 -8,-72 -7,-84l26 -1c8,13 7,9 15,17l95 96c12,10 12,2 25,5 0,0 4,-3 4,-4 -16,-12 -90,-112 -96,-129 19,-9 50,-44 35,-75 -17,-35 -66,-27 -78,-36l-112 -3 3 12c9,5 24,2 32,8 3,5 3,17 3,24zm422 -32l-4 13c-8,-1 -26,-7 -39,-8 -65,-10 -136,5 -157,71 -11,34 -3,52 5,81 4,5 11,25 36,45 36,30 78,38 125,38 42,0 52,-10 68,-12 3,-6 6,-16 7,-25 -28,11 -39,18 -77,15 -62,-4 -117,-51 -124,-110 -1,-8 -1,-15 -1,-23l3 -14c2,-5 1,-2 4,-5 0,-35 77,-70 134,-26 26,20 12,16 23,46l13 5c1,-16 -3,-67 -1,-103 -5,-3 -2,-2 -9,-2l-5 1 -1 13zm382 146c0,-5 15,-68 19,-74l35 80 -54 -6zm-236 -108c20,-2 50,17 52,29 22,17 -1,72 -55,61l-8 -92c4,0 3,0 7,1 4,0 2,0 4,1zm-53 26c4,8 9,66 7,76 3,4 2,5 3,11l6 78 -34 2 0 8c1,8 4,5 28,6 31,1 58,4 89,7 -2,-13 0,-14 -13,-16 -7,-1 -18,-2 -23,-5 -4,-8 -10,-69 -11,-84l26 0c4,8 9,12 16,18 6,6 11,12 16,18l50 51c5,4 5,4 9,8 16,19 27,29 53,25l0 -6 66 6c2,0 8,1 9,1 10,0 5,2 5,-3l-3 -11 -26 -6c-1,-13 7,-70 12,-81l65 3c5,5 40,79 43,89l-28 1 -3 7 0 3c1,6 6,4 12,4 36,2 70,6 105,11 -4,-22 -5,-11 -14,-18 -22,-3 -19,-1 -27,-17l-67 -135c-5,-10 -25,-47 -23,-55l20 -1 0 -14c-34,0 -70,-5 -103,-9l3 13c6,3 16,3 23,8 -5,27 -46,174 -54,189 -13,0 -22,1 -30,4l-67 -87c-6,-9 -16,-21 -20,-29 3,-3 9,-8 12,-10 32,-24 38,-73 -13,-92 -27,-10 -127,-19 -160,-17 6,13 0,12 15,15 17,2 28,-3 26,34zm521 162c5,6 4,22 5,31l1 15 -32 1 -2 13c2,0 7,0 8,0l4 2c1,0 1,0 2,1 14,-4 55,3 72,4l36 5c-4,-18 2,-13 -40,-22l-15 -94c17,2 34,4 49,9 10,3 10,4 12,16 3,16 -1,14 12,19 9,2 4,0 5,-6l-5 -72c-17,-1 -14,1 -16,18 -15,3 -44,0 -60,-2l-10 -83 32 5c30,8 41,9 44,28 3,16 2,15 18,19 -3,-29 -6,-55 -6,-85l-14 0 -2 21c-30,3 -118,-13 -156,-14l4 13 34 7c4,25 21,134 20,151z"/>
   <path class="fil8" d="M5028 1594l14 -4 2 -27c14,-7 53,-7 67,-5l6 2c3,-6 20,107 19,113 5,7 12,70 13,79l-40 0 -1 12 52 4c1,1 7,1 9,1l7 3c11,-1 23,2 34,4l28 3c5,0 1,1 4,-1 -7,-14 -3,-11 -19,-15 -33,-7 -27,-2 -32,-29l-12 -71c-5,-32 -11,-65 -15,-98 6,1 8,0 11,3 13,-1 45,9 57,13 13,5 11,8 13,23 3,24 1,11 13,20 6,-4 1,1 3,-6l-3 -83 -15 1 -1 13 -1 5c-40,0 -134,-13 -180,-20l-17 -3c-6,-3 -4,-1 -9,-21l-11 -4c-3,1 -2,1 -3,2l7 86zm-3610 40l-13 1 -85 10c0,-8 10,-70 15,-78 1,-3 0,-3 2,-5l29 -7 5 -14c-37,5 -75,12 -115,14l0 13 32 -1c-1,17 -17,130 -22,135l1 2 -12 60c-27,14 -31,-3 -40,23 20,-3 39,-6 59,-9 15,-1 49,-2 60,-6l-1 -12 -30 -1c-1,-12 9,-74 12,-88 3,-2 -1,0 4,-2l28 -5c20,-3 82,-16 96,-15l-17 96 -33 8 -4 13c14,0 40,-5 56,-7 21,-3 40,-4 61,-5l-1 -14 -31 -1c1,-26 22,-180 30,-195 8,-3 15,-4 24,-6 11,-3 10,-7 13,-16l-116 13 1 13 30 0c0,6 -7,69 -11,78 -1,3 -1,2 -2,4l-25 4zm318 37c-14,5 -16,2 -20,17 -4,14 -3,17 -16,22 -17,6 -42,11 -63,12l12 -94c5,-3 10,-3 27,-4 10,0 17,0 27,2l-2 22 9 3c4,-4 4,-8 6,-14 1,-5 2,-10 4,-15 2,-10 5,-19 7,-28l2 -12c-36,5 17,22 -78,27 2,-16 9,-71 15,-83 20,-1 42,-2 61,4l-2 24 12 3 17 -74c-32,4 -2,17 -31,21 -17,2 -29,3 -46,5l-92 9 1 12 31 1c0,22 -22,188 -28,195 -16,13 -31,-5 -38,23 23,-1 50,-7 75,-9 21,-2 57,-7 77,-5l-2 19 12 0c6,-29 18,-58 23,-83zm216 -125c-4,22 -22,39 -43,46l-28 6c1,-15 8,-85 13,-94 32,-3 67,7 58,42zm-116 54l1 2 -13 103 -35 9 -4 12c40,-5 76,-7 118,-10l-1 -13 -32 -2c-1,-13 5,-77 9,-85 6,-3 17,-3 25,-4l69 77c26,27 27,28 52,23 -2,-6 1,-1 -3,-6l-18 -23c-13,-18 -50,-76 -53,-92 14,-8 35,-29 43,-45 13,-27 5,-48 -19,-56 -32,-9 -124,1 -161,5l0 13 33 2c1,11 -6,85 -11,90zm258 -23c7,-110 170,-144 178,-7 0,30 -10,58 -25,75 -25,30 -67,43 -104,26 -36,-17 -56,-60 -49,-94zm224 -14c6,-41 -15,-72 -38,-86 -82,-50 -223,11 -231,118 -9,128 159,129 229,56 19,-20 35,-49 40,-88zm50 -93l7 2c1,29 -6,114 -10,148 -5,50 2,46 -28,50 -12,2 -11,4 -13,16 51,-4 97,-7 149,-7l-1 19 13 1c5,-28 11,-56 18,-82 -34,4 -7,28 -34,37 -18,6 -41,8 -61,9l5 -94c1,0 1,0 2,0 0,-1 1,-1 1,-1 0,0 25,-4 51,2l-2 21 11 4c5,-7 14,-56 15,-67 -13,1 -12,-2 -15,8 -4,10 -3,8 -15,10 -15,2 -31,4 -47,5l4 -47 4 -35c15,-3 49,-1 63,6l-1 25 13 3 12 -74 -8 1c-10,4 -7,5 -10,17 -48,7 -110,4 -149,8l1 14 25 1zm223 -7c-6,13 -13,22 -12,43 2,49 60,64 79,86 23,26 3,60 -28,64 -19,3 -33,-5 -41,-14 -11,-13 -10,-24 -9,-45l-15 -2 0 11 -1 16c-3,14 -3,30 -5,45 -2,13 -5,25 -6,38l14 -3 8 -31c30,2 51,9 80,-5 24,-11 33,-23 44,-46 15,-74 -33,-83 -74,-113 -25,-17 -15,-47 15,-53 15,-2 28,3 36,10 11,11 7,20 8,39l13 5c3,-15 3,-34 5,-48 3,-17 6,-31 8,-46l-14 1 -6 24c-18,-1 -39,-5 -57,0 -21,4 -31,15 -42,24zm297 37c61,-9 74,103 9,107 -62,4 -82,-96 -9,-107zm-72 55c-3,40 24,62 63,65 37,0 60,-11 75,-32 8,-10 13,-24 14,-40 1,-23 -7,-29 -13,-42 -6,-3 -11,-9 -20,-12 -56,-21 -114,9 -119,61zm185 -2c2,14 0,37 -1,51 -14,5 -18,-4 -20,12l50 -1c2,0 8,0 9,0l9 -3c-3,-10 -8,-6 -20,-8l-1 -50c56,0 15,18 40,20l4 -45c-12,1 -8,3 -13,11l-30 3 1 -44c66,0 21,17 48,22l3 -39 1 -10c-17,4 -6,2 -13,14 -12,1 -29,2 -42,2 -9,0 -35,-2 -43,1 2,15 8,3 18,10 4,4 3,50 0,54zm244 -107c16,-9 23,7 27,-18l-104 0 2 13c7,1 21,2 25,8 12,17 63,213 76,228 12,-26 27,-63 37,-92l27 -69c3,-9 5,-16 10,-22 1,2 0,1 2,4 0,0 1,1 1,1l7 19c18,44 50,126 68,161l43 -133c7,-22 15,-43 22,-65 16,-45 12,-32 30,-37 8,-2 3,3 5,-5 1,-1 1,-7 1,-8l-89 -2c1,10 0,13 10,15 7,1 13,1 19,3 1,0 1,1 1,1 1,6 1,4 -2,19l-29 110c-2,7 -2,11 -6,17l-54 -142 24 -3 1 -12 -97 -2c3,15 -2,14 32,18 -3,18 -18,53 -24,71 -9,23 -17,45 -26,68 -8,-11 -18,-57 -22,-73 -3,-13 -7,-25 -10,-38 -2,-7 -3,-12 -6,-19 -1,-4 -4,-12 -1,-16zm352 94c2,-10 9,-28 12,-38 4,-12 7,-29 14,-38l29 79 -55 -3zm-13 -22c-5,23 -19,53 -27,77 -4,13 -10,25 -14,37 -8,22 -19,7 -33,16l-1 13c27,-5 64,0 92,1 -2,-20 -2,-12 -28,-18 -1,-13 13,-71 18,-83l67 -1c6,9 34,80 33,87l-29 4 -2 12c38,2 75,-1 115,4 -4,-32 -23,-3 -35,-27 -16,-30 -71,-162 -77,-189 7,-4 14,-1 21,-5l2 -11 -102 -3 1 12 23 6 -24 68zm294 -60c29,3 57,19 56,49 -4,33 -29,43 -64,43l-4 -93 12 1zm-55 24c3,13 10,154 7,168 -9,4 -21,3 -32,4l-2 13c19,2 41,0 59,1 20,1 39,2 58,4 -2,-13 0,-14 -14,-16 -7,-1 -17,-1 -21,-5 -4,-6 -8,-72 -7,-84l26 0c8,12 7,9 15,17l95 96c12,10 12,2 25,5 0,0 4,-4 4,-4 -16,-12 -90,-113 -96,-130 19,-8 50,-43 35,-74 -17,-35 -66,-27 -78,-36l-112 -3 3 12c9,5 24,2 32,7 3,6 3,17 3,25zm422 -33l-4 13c-8,0 -26,-6 -39,-8 -65,-9 -136,6 -157,72 -11,33 -3,51 5,81 4,5 11,24 36,45 36,29 78,38 125,38 42,0 52,-10 68,-12 3,-7 6,-17 7,-25 -28,11 -39,17 -77,15 -62,-4 -117,-52 -124,-111 -1,-7 -1,-15 -1,-22l3 -14c2,-6 1,-3 4,-6 0,-34 77,-70 134,-25 26,20 12,16 23,46l13 4c1,-16 -3,-67 -1,-102 -5,-3 -2,-2 -9,-2l-5 1 -1 12zm382 147c0,-5 15,-69 19,-74l35 80 -54 -6zm-236 -108c20,-3 50,17 52,28 22,17 -1,73 -55,62l-8 -92c4,0 3,-1 7,0 4,1 2,1 4,2zm-53 25c4,9 9,67 7,77 3,4 2,4 3,11l6 78 -34 1 0 8c1,8 4,6 28,7 31,1 58,4 89,7 -2,-14 0,-14 -13,-16 -7,-1 -18,-2 -23,-5 -4,-8 -10,-70 -11,-85l26 1c4,7 9,11 16,18 6,5 11,12 16,18l50 50c5,4 5,4 9,9 16,18 27,29 53,25l0 -7 66 6c2,0 8,1 9,1 10,1 5,2 5,-2l-3 -11 -26 -6c-1,-13 7,-70 12,-81l65 2c5,5 40,79 43,90l-28 0 -3 7 0 3c1,7 6,5 12,4 36,2 70,6 105,12 -4,-22 -5,-11 -14,-18 -22,-3 -19,-2 -27,-17l-67 -136c-5,-10 -25,-47 -23,-55l20 -1 0 -14c-34,1 -70,-4 -103,-8l3 13c6,3 16,3 23,7 -5,27 -46,175 -54,189 -13,1 -22,2 -30,5l-67 -88c-6,-8 -16,-21 -20,-28 3,-4 9,-8 12,-10 32,-25 38,-73 -13,-92 -27,-10 -127,-20 -160,-17 6,12 0,12 15,14 17,3 28,-3 26,34zm521 163c5,6 4,21 5,31l1 14 -32 1 -2 13c2,0 7,1 8,1l4 1c1,1 1,1 2,1 14,-4 55,3 72,5l36 5c-4,-19 2,-13 -40,-22l-15 -94c17,1 34,4 49,9 10,3 10,4 12,16 3,15 -1,13 12,18 9,2 4,0 5,-6l-5 -71c-17,-1 -14,1 -16,18 -15,3 -44,-1 -60,-2l-10 -83 32 5c30,7 41,8 44,28 3,15 2,14 18,19 -3,-29 -6,-55 -6,-86l-14 1 -2 21c-30,2 -118,-13 -156,-15l4 14 34 7c4,25 21,133 20,151z"/>
   <path class="fil9" d="M3248 1867c-404,-151 -1167,-138 -2180,29 61,67 92,100 92,100 1052,-170 1751,-160 2097,29 173,-165 870,-172 2093,-20 58,-74 87,-110 87,-110 -1234,-150 -1966,-164 -2189,-28zm827 -718c-8,10 -14,67 -14,80l466 -6 15 -41c72,65 130,105 270,114 94,5 83,0 145,-42 30,-20 89,-55 129,-63l-14 120c55,22 306,32 380,30l33 -76c12,10 22,24 33,39l99 128c12,8 110,16 132,19 37,5 32,7 57,-13 13,-10 29,-25 48,-25 65,3 188,35 251,52 168,47 97,57 178,-7l20 -21c-62,-24 -129,-48 -199,-63 -57,-12 -170,-34 -226,-32l6 49c-52,-2 -115,-14 -168,-20 -58,-6 -29,9 -102,-88 -31,-41 -92,-115 -129,-152 -16,-16 -28,-34 -46,-50 5,63 36,122 46,182l-374 -22c5,-64 29,-129 15,-197 -36,112 13,43 -133,124 -86,48 -57,65 -200,38 -145,-28 -201,-76 -279,-180 -8,-10 -20,-30 -29,-37 7,42 56,136 59,153 -56,2 -450,16 -469,7zm-3564 110c-4,-5 -8,-2 -7,-27 2,-37 9,-168 17,-186l27 -5 13 -93c-11,1 -91,12 -99,24 -5,8 -23,295 -28,352 -6,57 -6,56 -55,73 -49,17 -355,127 -379,129l0 5c18,5 41,20 57,30 58,35 44,24 181,-24l249 -88 5 -46c68,48 52,59 99,50l270 -46c39,-6 97,-12 133,-22l1 -82 138 -23c6,16 14,21 22,37 37,-5 400,-77 405,-89l3 -6c4,-12 7,-134 24,-196l27 0c-12,-28 -12,-63 -25,-87l-38 4c-26,67 -36,133 -43,213l-407 83 -1 -38c-17,0 -131,18 -152,30 -17,73 29,78 -65,94 -44,7 -88,14 -133,22 -88,14 -182,35 -269,45 4,-24 9,-46 13,-70 5,-23 13,-41 17,-63zm1125 -109l35 83c171,-15 330,-21 503,-28l-5 -69c25,20 51,50 77,73 80,71 159,146 272,178 76,23 188,14 251,-22 30,-16 108,-88 111,-116 2,-19 -1,-54 -1,-74 -43,54 -80,106 -161,135 -169,58 -319,-29 -437,-131l-155 -145 -1 90c-26,6 -290,11 -371,17 -29,3 -95,16 -118,9zm1215 10c37,-26 315,-16 374,-9 122,14 210,47 315,84 72,25 252,85 334,54 25,-9 93,-68 110,-87l76 -75c22,-21 14,-20 21,-17 1,-1 2,-3 2,-3l19 -82c5,-27 13,-64 12,-92 -26,48 -23,80 -81,153 -33,41 -75,85 -121,115 -36,24 -41,24 -96,22 -97,-4 -196,-34 -283,-69 -127,-51 -226,-82 -380,-91 -73,-4 -384,4 -430,34 45,16 88,45 128,63z"/>
  </g>
 </g>
</svg>
