<?xml version="1.0" encoding="UTF-8"?>
<!DOCTYPE svg PUBLIC "-//W3C//DTD SVG 1.1//EN" "http://www.w3.org/Graphics/SVG/1.1/DTD/svg11.dtd">
<!-- Creator: CorelDRAW X8 -->
<svg xmlns="http://www.w3.org/2000/svg" xml:space="preserve" width="60.371mm" height="23.611mm" version="1.1" style="shape-rendering:geometricPrecision; text-rendering:geometricPrecision; image-rendering:optimizeQuality; fill-rule:evenodd; clip-rule:evenodd"
viewBox="0 0 6037 2361"
 xmlns:xlink="http://www.w3.org/1999/xlink">
 <defs>
  <style type="text/css">
   <![CDATA[
    .fil1 {fill:#172825}
    .fil0 {fill:#694C23}
    .fil4 {fill:#9C6322}
    .fil2 {fill:url(#id0)}
    .fil3 {fill:url(#id1)}
   ]]>
  </style>
  <linearGradient id="id0" gradientUnits="userSpaceOnUse" x1="332.92" y1="2128.19" x2="365.73" y2="844.34">
   <stop offset="0" style="stop-opacity:1; stop-color:#855D27"/>
   <stop offset="0.211765" style="stop-opacity:1; stop-color:#856435"/>
   <stop offset="0.631373" style="stop-opacity:1; stop-color:#E1BF5D"/>
   <stop offset="1" style="stop-opacity:1; stop-color:#80400C"/>
  </linearGradient>
  <linearGradient id="id1" gradientUnits="userSpaceOnUse" x1="917.63" y1="1001.71" x2="944.54" y2="201.75">
   <stop offset="0" style="stop-opacity:1; stop-color:#7A5120"/>
   <stop offset="0.588235" style="stop-opacity:1; stop-color:#EFCE65"/>
   <stop offset="1" style="stop-opacity:1; stop-color:#80400C"/>
  </linearGradient>
 </defs>
 <g id="Слой_x0020_1">
  <metadata id="CorelCorpID_0Corel-Layer"/>
  <path class="fil0" d="M2007 259c40,4 73,-9 104,-34l2 -2 3 -2c254,-177 600,-221 903,-221 302,0 648,44 903,221l2 2 2 2c31,25 64,38 104,34l4 -1 4 0c479,1 958,2 1437,3l123 0 -63 105c-181,307 78,568 380,391l87 -51 17 100c127,744 -440,1334 -1172,1355l-1 0 -2 0c-246,-4 -493,-4 -739,-4 -246,0 -493,1 -739,4 -100,1 -229,18 -289,110l-58 90 -59 -90c-60,-92 -189,-109 -289,-110 -246,-3 -493,-4 -739,-4 -246,0 -493,0 -739,4l-2 0 -1 0c-732,-21 -1299,-611 -1172,-1355l17 -100 87 51c302,177 561,-84 380,-391l-62 -105 122 0c479,-1 958,-2 1437,-3l4 0 4 1z"/>
  <path class="fil1" d="M562 331c958,-2 1437,-3 1437,-3 57,6 109,-10 157,-49 197,-138 485,-208 863,-209 377,1 665,71 863,209 47,39 99,55 156,49 0,0 479,1 1437,3 -220,373 115,697 475,487 120,699 -412,1253 -1105,1273 -332,-6 -1148,-6 -1480,0 -170,0 -285,47 -346,141 -61,-94 -177,-141 -347,-141 -332,-6 -1148,-6 -1480,0 -692,-20 -1225,-574 -1105,-1273 360,210 696,-114 475,-487z"/>
  <path class="fil2" d="M5028 1844c0,59 16,136 26,193 6,38 4,58 40,72 26,9 62,16 89,22 125,30 276,39 404,5 102,-28 230,-106 279,-168 71,-87 67,-247 9,-343 -106,-177 -413,-200 -548,-345 -77,-82 -43,-217 145,-236 188,-19 268,79 337,106l-3 -216c-65,-38 -298,-48 -386,-39 -104,10 -231,71 -289,129 -63,64 -114,205 -49,314 91,153 388,238 511,324 94,65 146,167 43,270 -75,75 -207,84 -339,54 -115,-26 -187,-95 -269,-142zm-4436 82c-5,-182 -1,-370 -1,-553 1,-92 -1,-184 0,-276 2,-123 70,-120 84,-185 -62,-2 -393,-11 -424,7 -3,51 17,10 75,103 28,46 19,96 19,157l0 701c0,60 11,106 -25,151 -50,63 -70,42 -89,92 47,10 747,8 833,3 21,-46 114,-270 120,-309 -45,2 -175,92 -266,112 -143,33 -195,-4 -326,-3zm575 -828c9,25 -4,3 11,25 7,9 31,32 37,52 11,30 5,317 5,362 0,86 14,303 -21,352 -12,16 -16,18 -31,29 -25,20 -22,5 -22,36 25,10 516,8 575,3 19,-22 74,-180 70,-216 -65,36 -72,69 -165,90 -79,18 -154,3 -232,-8 -13,-37 -9,-224 -4,-270 39,-2 81,-3 120,-1 47,1 55,14 86,19l-2 -135 -199 -8 -8 -47c0,-17 1,-36 1,-53 2,-84 -28,-137 170,-101 57,11 73,36 117,48l-1 -178c-64,-8 -452,-10 -507,1zm1285 734c-147,35 -271,33 -381,-45 -279,-198 -143,-654 302,-585 90,14 104,56 155,74l-1 -175c-204,-31 -382,-43 -553,52 -261,144 -315,623 90,782 172,68 371,36 556,3l-2 -438 -250 2c7,44 84,35 87,124 2,53 4,156 -3,206zm714 -731c-20,-19 -462,-16 -500,-1 18,39 38,46 49,72 14,33 5,536 6,611 1,148 -70,113 -72,171 29,11 554,8 571,-1 22,-14 34,-74 43,-101 11,-34 26,-70 29,-109 -122,51 -74,129 -400,79 -10,-36 -6,-223 -3,-269 95,-6 128,-4 205,19l-3 -128c-1,-3 -2,-4 -3,-8l-199 -6c-4,-42 -8,-166 6,-199 33,-20 119,-13 162,-4 39,7 96,46 117,46 2,-31 2,-63 2,-94 2,-68 8,-62 -10,-78zm125 -2c9,17 -3,4 13,21 7,7 8,6 16,14 12,11 21,19 28,39 17,46 8,540 9,625 0,56 -4,66 -33,93 -29,27 -55,33 -70,56 29,14 159,7 199,7 32,1 72,4 102,-3 2,0 5,0 6,-2 1,-2 4,-1 6,-2 -30,-57 -82,-17 -82,-164 0,-58 -6,-380 6,-408 33,1 59,46 81,73l347 413c36,40 105,134 182,125l2 -733c0,-100 67,-105 79,-154 -66,-1 -240,-12 -275,6 8,16 -4,0 13,17 28,28 70,44 70,109l-2 484 -440 -541c-81,-99 -1,-76 -257,-75zm1169 726l-1 -584c201,-49 412,17 419,281 5,223 -184,342 -418,303zm-242 -721l38 33c11,8 20,15 26,32 12,32 5,321 5,368 0,82 0,164 0,246 0,158 -55,114 -71,168 92,8 215,1 310,1 119,0 175,8 272,-39 129,-62 234,-192 237,-384 4,-215 -79,-325 -228,-392 -113,-50 -439,-38 -589,-33z"/>
  <path class="fil3" d="M4392 979c60,7 491,8 536,-3l63 -191c-111,44 -67,120 -374,72l0 -247c87,-3 102,-2 188,15l0 -123 -187 -3c-7,-46 -15,-149 6,-183 26,-18 107,-12 146,-6 42,7 75,44 110,40 4,-153 20,-161 -56,-162l-389 0c-53,10 7,37 20,71 12,30 15,602 -4,644 -25,55 -49,29 -59,76zm-3541 2l540 0 79 -198c-47,5 -107,52 -168,69 -86,22 -137,0 -217,-1 -5,-84 -5,-549 3,-578 8,-29 37,-52 49,-78l-277 -2c12,63 64,21 63,167l-1 454c1,159 -33,86 -71,167zm588 -791l0 12c13,53 42,0 42,143l-1 528c-4,23 -14,42 -27,56 -22,25 -34,18 -42,51l538 1 62 -196c-117,44 -54,118 -374,72l0 -248c167,-6 132,11 190,17l0 -121 -189 -6c-7,-46 -14,-150 6,-183 26,-18 107,-12 145,-6 45,8 79,44 111,40 2,-93 23,-152 -26,-160 -7,-2 -22,-2 -29,-2l-406 2zm874 414c5,-40 84,-216 102,-261 26,24 46,97 59,131 14,34 43,96 47,131l-208 -1zm-345 376l304 1c-16,-25 -50,-28 -75,-49 -7,-40 63,-208 87,-241l266 -1c16,36 87,205 89,242 -17,11 -64,29 -75,46l343 3c-18,-26 -86,-32 -142,-149 -55,-113 -234,-593 -258,-635l-204 0c-10,86 58,-26 -37,205 -36,88 -171,454 -219,503 -21,23 -65,47 -79,75zm1602 -12l2 -404c-42,-3 -210,-8 -235,4 16,35 76,29 81,104 4,58 1,137 0,197 -622,163 -642,-672 -88,-585 91,15 96,43 155,69l2 -157c-96,-44 -372,-35 -507,40 -258,143 -291,578 65,726 151,63 362,45 525,6zm-51 -772c13,26 28,19 57,33 20,10 41,26 52,38 45,47 1,376 21,524 11,85 95,158 170,186 47,18 107,23 160,14 62,-9 98,-36 145,-44l12 27c0,2 2,4 3,6l227 1c-20,-40 -12,-1 -66,-68l-15 -17c-5,-121 -1,-250 -1,-372 0,-62 0,-124 0,-186 0,-126 40,-83 47,-141l-263 -4c25,63 81,26 81,167 -1,82 15,409 -20,459 -34,48 -101,68 -184,64 -194,-9 -171,-137 -171,-307 0,-76 -5,-165 0,-239 9,-127 85,-103 93,-145 -54,-5 -313,-11 -348,4z"/>
  <path class="fil4" d="M5100 642c69,-37 95,70 43,97 -58,31 -102,-65 -43,-97zm102 130l84 0c-21,-47 -18,-67 -14,-129l42 4 1 -34c-17,-8 -77,-1 -40,-38 24,-25 23,16 53,-35 -80,-12 -94,22 -108,82 -6,25 25,90 -3,132l-15 18zm-108 -160c-122,41 -55,197 60,160 111,-35 56,-199 -60,-160z"/>
 </g>
</svg>
