<?xml version="1.0" encoding="UTF-8"?>
<!DOCTYPE svg PUBLIC "-//W3C//DTD SVG 1.1//EN" "http://www.w3.org/Graphics/SVG/1.1/DTD/svg11.dtd">
<!-- Creator: CorelDRAW X8 -->
<svg xmlns="http://www.w3.org/2000/svg" xml:space="preserve" width="38.96mm" height="21.21mm" version="1.1" style="shape-rendering:geometricPrecision; text-rendering:geometricPrecision; image-rendering:optimizeQuality; fill-rule:evenodd; clip-rule:evenodd"
viewBox="0 0 3896 2121"
 xmlns:xlink="http://www.w3.org/1999/xlink">
 <defs>
  <style type="text/css">
   <![CDATA[
    .fil3 {fill:#191919}
    .fil2 {fill:#FDFDFD}
    .fil0 {fill:#FEFEFE}
    .fil1 {fill:#FF9B00}
   ]]>
  </style>
 </defs>
 <g id="Слой_x0020_1">
  <metadata id="CorelCorpID_0Corel-Layer"/>
  <g id="_2098355658448">
   <g id="_2062587070576">
    <path class="fil0" d="M2627 1009c-2,-21 4,-32 16,-40 1,-4 3,-8 4,-11 2,-5 3,-8 4,-13 5,-16 12,-35 15,-52 10,-49 20,-97 20,-148 0,-10 2,-19 1,-31 0,-6 -1,-7 -1,-15 0,-5 0,-11 0,-17l-6 -60c-5,-34 -13,-78 -24,-110 -2,-5 -3,-6 -4,-12 -12,-40 -30,-80 -50,-117 -13,-25 -28,-49 -44,-72l-14 -19c-2,-4 -4,-6 -7,-10 -3,-3 -5,-5 -7,-9l-31 -36c-8,-10 -31,-33 -42,-42 -2,-2 -7,-6 -9,-8 -3,5 -5,6 -8,11l-57 71c-20,25 -42,49 -62,75 -2,3 -2,2 -3,7 11,3 57,62 63,69 22,29 38,61 54,93 10,22 18,45 25,70 2,7 4,15 6,21 13,61 14,84 13,145 0,22 -5,52 -9,72 -6,29 -15,57 -24,83l-17 37c-5,13 -12,24 -18,36 -9,-6 -53,-53 -63,-61 -11,-8 -55,-54 -64,-61l-64 -61c-10,-9 -20,-21 -31,-30l-16 -15c-16,-16 -32,-30 -47,-46 -5,-5 -36,-78 -39,-86l-58 -130c-10,-25 -23,-50 -33,-75 -1,-2 -1,-3 -3,-5 -2,-5 0,-4 -4,-5l0 441c0,17 0,14 9,24l72 68c10,8 45,45 56,55 4,3 5,4 9,7 3,3 5,5 8,8 5,6 10,11 15,16 31,27 60,56 89,85 4,3 6,4 9,7 5,5 12,11 16,17 -4,5 -24,17 -30,21 -21,14 -44,26 -68,37 -39,17 -77,29 -119,37 -55,11 -112,10 -168,4 -74,-8 -148,-38 -211,-77 -6,-4 -27,-18 -30,-22 5,-9 15,-16 23,-24 3,-3 5,-4 9,-7 11,-10 20,-23 31,-32 13,-9 21,-21 32,-31 12,-9 22,-21 32,-31l130 -124c17,-17 26,-17 26,-37 -1,-70 3,-433 -2,-442 -4,3 -17,36 -20,42 -1,4 -3,6 -4,10l-43 97c-10,21 -18,43 -29,65l-9 21c-5,11 -25,60 -29,65 -5,6 -54,51 -64,61 -8,8 -15,16 -23,23 -11,9 -21,20 -32,30 -3,4 -5,4 -8,7l-23 24c-4,3 -6,4 -9,7l-55 54c-3,3 -5,4 -9,7 -11,10 -19,22 -31,31 -11,8 -22,24 -32,31 -9,-18 -19,-35 -27,-53 -14,-33 -25,-68 -32,-103 -1,-8 -3,-15 -4,-22 -3,-15 -5,-32 -5,-48 -2,-48 1,-100 12,-146l12 -42c11,-33 28,-73 46,-102 17,-27 32,-46 51,-71 10,-12 34,-34 39,-42 -11,-13 -21,-26 -32,-39 -6,-7 -10,-14 -16,-20 -16,-21 -32,-42 -50,-61l-24 -30c-3,-4 -5,-8 -9,-11l-13 12c-21,18 -44,47 -63,68 -4,5 -7,9 -11,14 -3,3 -3,4 -6,7 -11,15 -22,31 -32,47 -12,19 -23,37 -33,58 -3,6 -6,11 -9,17 -8,17 -17,36 -23,55 -3,7 -6,12 -7,18 -3,9 -5,13 -7,20 -13,43 -22,84 -28,128 -3,23 -6,50 -5,73 0,42 2,82 7,122 2,15 5,31 8,45l10 42c25,80 49,137 93,206l21 31c14,19 37,48 54,64 3,3 3,4 6,7 9,12 21,21 32,32l81 65c28,20 59,36 89,53 3,2 5,3 9,4l27 13c23,11 51,21 76,28l40 12c37,10 84,16 123,19l64 2c18,0 34,-2 50,-3 31,-1 61,-8 91,-14 21,-4 41,-10 61,-16 32,-10 64,-22 95,-36 11,-5 23,-11 34,-17 30,-17 59,-35 87,-55 13,-9 25,-20 37,-29 16,-14 42,-35 54,-50 8,-10 27,-28 37,-41 25,-32 34,-43 55,-75 17,-26 35,-57 47,-85l8 -19z"/>
    <path class="fil1" d="M1508 153c2,5 4,7 8,10l57 71c11,13 21,26 33,40l32 41 48 -32c6,-3 11,-7 17,-10 52,-28 100,-44 157,-57 43,-9 104,-11 148,-7 43,5 92,15 132,30 7,3 12,5 19,8 33,12 75,38 104,57 5,3 11,9 17,11 1,-5 34,-44 39,-50l41 -50c5,-7 10,-13 16,-20l24 -30c2,-2 3,-3 4,-5 3,-3 3,-1 4,-6 -3,-4 -15,-12 -20,-16 -8,-5 -14,-10 -22,-15 -20,-13 -60,-38 -80,-47 -3,-1 -5,-2 -7,-3 -25,-13 -72,-31 -99,-39l-44 -13c-47,-13 -106,-20 -165,-21l-25 0c-49,0 -96,5 -135,14 -62,15 -64,16 -127,38l-25 11c-5,3 -9,4 -13,6l-49 25c-4,3 -7,5 -11,7 -5,2 -7,4 -11,7l-67 45z"/>
    <path class="fil0" d="M1800 2001l71 0 66 -148c2,-4 2,-7 6,-10 0,5 14,34 16,40l44 98c2,4 3,6 4,10 2,4 3,7 5,10l76 0 138 -316 -106 0c-2,11 -8,21 -12,30l-20 49c-7,13 -11,27 -17,39 -3,7 -5,13 -8,20l-8 20c-4,-3 -4,-4 -6,-9 -1,-3 -2,-5 -4,-9l-17 -40c-2,-4 -3,-6 -4,-10l-39 -90 -76 0 -51 118c-3,7 -6,13 -9,20 -2,3 -3,5 -5,9l-3 8c0,0 0,0 0,0 0,1 -1,1 -1,1 0,0 0,1 0,1l-66 -157 -113 0c3,6 6,13 9,20 13,26 32,75 43,98 10,19 25,57 35,79l48 108c1,5 3,8 4,11z"/>
    <path class="fil0" d="M0 1752l0 185c0,23 22,50 40,54 7,-4 47,-46 52,-51 3,-3 16,-14 16,-18l0 -153 199 0 0 148 -144 0c-4,0 -39,37 -44,42 -2,2 -3,4 -6,5l-31 32c-2,1 -8,5 -1,5l244 0c50,0 92,-25 92,-74l0 -160c0,-2 -14,-21 -16,-25l-34 -49c-5,-6 -22,-8 -34,-8l-248 0c-43,0 -85,25 -85,67z"/>
    <path class="fil0" d="M1261 1998c0,3 1,3 4,3l102 0c3,0 4,0 4,-3l0 -232 167 0 0 50 -120 0 0 63c6,2 44,40 53,47l39 34c50,44 25,36 88,36 33,0 66,0 99,0 -3,-4 -12,-12 -17,-16l-105 -91c-8,-8 -6,-6 5,-8 6,-1 13,-2 18,-4 20,-7 44,-23 44,-49l0 -81c0,-18 -9,-36 -22,-45 -12,-9 -30,-17 -50,-17l-309 0 0 313z"/>
    <path class="fil0" d="M3384 2001l109 0 0 -122 192 0 0 119c0,5 4,4 9,4l99 -1c0,-2 1,-3 1,-6l0 -306c0,-3 -1,-4 -4,-4l-105 0 0 111 -192 0 0 -111 -109 0 0 316z"/>
    <path class="fil0" d="M2944 1793l0 124c0,25 5,38 16,52 24,33 70,30 106,30l173 0c14,0 18,2 32,0 20,-4 32,-11 44,-24 11,-10 23,-30 23,-47l0 -55 -106 0 0 42 -177 0 0 -146 177 0 0 36 108 0c0,-49 7,-82 -34,-107 -5,-3 -8,-4 -14,-6 -9,-4 -19,-7 -32,-7l-242 0c-5,0 -15,19 -20,26 -3,4 -5,9 -9,13l-27 40c-4,5 -18,24 -18,29z"/>
    <path class="fil0" d="M881 1765l0 236 330 0c3,0 4,0 4,-3l0 -78c0,-3 -1,-3 -4,-3l-222 0 0 -39 149 0c3,0 4,-1 4,-4l0 -65c0,-3 -1,-4 -4,-4l-149 0 0 -36 226 0 0 -84 -278 0c-4,0 -10,13 -14,19 -5,6 -42,58 -42,61z"/>
    <path class="fil0" d="M2142 2001l117 0c3,-5 5,-8 8,-12l8 -13c3,-5 5,-8 8,-12l24 -38c3,-4 5,-8 8,-12l70 -108c2,-3 3,-5 5,-6 3,4 5,7 8,12l89 138c5,9 10,16 16,25l16 26 122 0c-2,-5 -27,-41 -32,-49 -2,-4 -4,-6 -6,-10l-39 -60c-5,-6 -9,-13 -13,-19l-26 -40c-5,-7 -8,-13 -13,-20 -9,-14 -17,-26 -26,-40l-45 -69c-2,-3 -5,-9 -8,-9l-79 0c-4,0 -25,34 -27,38 -9,14 -18,26 -27,39 -25,36 -54,83 -79,119l-33 49c-3,4 -4,6 -7,10 -5,8 -38,55 -39,61z"/>
    <path class="fil0" d="M606 2001l74 0c3,-4 4,-5 6,-9l135 -207c5,-7 9,-13 14,-20l32 -49c4,-7 18,-27 19,-31l-120 0c-1,5 -66,108 -73,119 -6,8 -10,16 -15,24 -3,5 -27,45 -31,47 -1,-3 -5,-8 -7,-11 -2,-4 -4,-8 -7,-12 -20,-31 -46,-78 -66,-107 -4,-5 -35,-56 -36,-60l-123 0 198 316z"/>
    <path class="fil0" d="M2556 1765c0,3 1,4 4,4l134 0 0 232 105 0c3,0 4,0 4,-3l0 -229 105 0c5,0 18,-24 22,-30l35 -54 -409 0 0 80z"/>
    <path class="fil1" d="M737 1683c-1,-5 -6,-11 -10,-17l-42 -60c-6,-8 -29,-42 -33,-44 -3,2 -3,3 -5,6l-73 104c-11,15 -17,11 69,11 31,0 63,0 94,0z"/>
    <path class="fil1" d="M2393 2121c1,-5 35,-52 41,-60 6,-9 40,-55 41,-61l-168 0c0,6 15,25 20,31 7,11 14,20 21,30l38 53c2,4 2,6 7,7z"/>
    <path class="fil2" d="M2633 999c0,-35 53,-38 53,1 0,19 -27,36 -45,18 -5,-6 -8,-9 -8,-19zm10 -30c-12,8 -18,19 -16,40 3,6 5,11 10,15 19,15 43,8 53,-11 14,-28 -19,-61 -47,-44z"/>
    <path class="fil3" d="M3861 1688c17,0 28,5 28,25 0,28 -46,31 -48,0 -1,-11 9,-25 20,-25zm-27 23c0,15 11,29 29,31 15,1 33,-10 33,-27l0 -7c0,-23 -34,-37 -53,-19 -4,4 -9,15 -9,22z"/>
    <path class="fil2" d="M2656 996l0 -9c6,1 5,1 7,7 -4,2 -1,2 -7,2zm-10 -14l0 32c0,5 3,4 10,4l0 -13c4,4 6,7 9,12l12 0c-3,-6 -7,-9 -10,-14 2,-4 7,-7 7,-12 0,-15 -13,-13 -24,-13 -3,0 -4,1 -4,4z"/>
    <path class="fil3" d="M3862 1703l5 0 0 5 -5 0 0 -5zm-9 -5l0 30 9 0 0 -12c2,2 0,0 2,2l6 10 10 0c-2,-7 -7,-9 -9,-16 10,-2 8,-18 1,-18 -13,0 -19,-2 -19,4z"/>
   </g>
  </g>
 </g>
</svg>
