<?xml version="1.0" encoding="UTF-8"?>
<!DOCTYPE svg PUBLIC "-//W3C//DTD SVG 1.1//EN" "http://www.w3.org/Graphics/SVG/1.1/DTD/svg11.dtd">
<!-- Creator: CorelDRAW X8 -->
<svg xmlns="http://www.w3.org/2000/svg" xml:space="preserve" width="57.92mm" height="24.54mm" version="1.1" style="shape-rendering:geometricPrecision; text-rendering:geometricPrecision; image-rendering:optimizeQuality; fill-rule:evenodd; clip-rule:evenodd"
viewBox="0 0 5792 2454"
 xmlns:xlink="http://www.w3.org/1999/xlink">
 <defs>
  <style type="text/css">
   <![CDATA[
    .fil1 {fill:#424242}
    .fil2 {fill:#7D7D7D}
    .fil4 {fill:#595959;fill-rule:nonzero}
    .fil3 {fill:#7D7D7D;fill-rule:nonzero}
    .fil0 {fill:url(#id0)}
   ]]>
  </style>
  <linearGradient id="id0" gradientUnits="userSpaceOnUse" x1="384.01" y1="2443" x2="410.01" y2="1472.99">
   <stop offset="0" style="stop-opacity:1; stop-color:#181913"/>
   <stop offset="0.54902" style="stop-opacity:1; stop-color:black"/>
   <stop offset="1" style="stop-opacity:1; stop-color:#333333"/>
  </linearGradient>
 </defs>
 <g id="Слой_x0020_1">
  <metadata id="CorelCorpID_0Corel-Layer"/>
  <g id="_2062474341616">
   <path class="fil0" d="M5573 1741l179 -30c-2,-69 -24,-131 -65,-176 -41,-43 -101,-70 -179,-72 -51,0 -93,12 -127,35 -33,21 -58,51 -75,86 -18,35 -27,76 -28,117 -1,60 16,122 51,176 3,5 9,13 15,20 8,10 17,20 25,29 27,30 56,55 84,80 22,19 44,39 65,60 28,29 43,57 49,81 5,17 4,33 1,47 -4,14 -11,26 -19,34 -7,7 -15,12 -24,14 -4,1 -8,1 -11,1 -17,0 -32,-8 -44,-24 -11,-14 -20,-33 -26,-57 -4,-16 -7,-35 -8,-57l-177 10c8,84 30,168 77,226 38,49 95,80 176,79 30,0 68,-4 103,-17 27,-10 53,-24 72,-45 19,-21 38,-52 52,-86 12,-30 19,-62 19,-91 -3,-148 -98,-235 -194,-324 -17,-14 -33,-29 -49,-45 -33,-32 -48,-67 -50,-97 -1,-13 1,-26 4,-37 3,-11 9,-21 16,-28 9,-9 19,-15 31,-15 1,0 1,-1 2,-1 18,0 31,11 41,31 7,16 12,39 14,68 0,2 0,5 0,8zm-2111 -68l-1 737 181 0 4 -737 0 -17 17 0 120 0 0 -182 -460 0 1 182 121 0 17 0 0 17zm-343 102l-1 635 133 0 1 -239 0 -17 17 0 97 0 0 -131 -98 0 -17 0 0 -17 1 -81 0 -16 17 0 140 0 -1 -134 -289 0zm-42 482l0 -329 0 0 0 0 0 0c0,-42 -17,-80 -45,-108 -28,-28 -66,-45 -108,-45 -42,0 -80,17 -108,45 -28,28 -45,66 -45,108l0 329c0,43 17,81 45,109 28,27 66,44 108,44 42,0 80,-17 108,-44 28,-28 45,-66 45,-109l0 0 0 0 0 0zm-868 153l0 -190 -207 0 -17 0 0 -17 2 -729 -183 0 -2 936 407 0zm36 -936l-2 712 0 0 0 17 1 207 257 0c53,0 106,-28 146,-69 42,-42 70,-99 70,-152l1 -484 0 0 0 0 0 0c0,-56 -25,-114 -65,-158 -39,-44 -93,-73 -150,-73l0 0 -1 0 -257 0zm-448 936l0 0 -111 -398 -3 -12 11 -7c13,-8 28,-25 40,-46 10,-17 17,-37 17,-54l0 -210 0 -1 0 0c0,-73 -31,-125 -72,-159 -42,-34 -94,-49 -136,-49l-1 0 0 0 -258 0 -2 936 186 0 0 -352 0 -17 17 0 2 0 14 0 3 12 90 357 203 0zm-28 -224l1 -234c-2,4 -5,8 -7,12 -12,20 -27,38 -41,50l47 172zm-967 -591c-15,41 -21,93 -23,145l0 443c0,65 27,124 69,166 43,43 101,69 166,69 65,0 123,-26 166,-69 42,-42 68,-101 68,-165l0 -1 0 -487 0 0 0 0c0,-65 -26,-124 -68,-166 -43,-42 -101,-69 -166,-69 -65,0 -123,27 -166,69 -19,19 -34,41 -46,65zm-433 815l33 -249 17 -126 17 126 33 249 171 0 147 -936 -189 0 -34 213 -19 116 -14 -117 -27 -212 -93 0 -88 0 -27 212 -15 117 -18 -116 -35 -213 -188 0 158 936 171 0zm3468 -936l-159 936 192 0 37 -192 2 -14 14 0 59 0 14 0 3 14 30 192 189 0 -152 -936 -229 0zm404 0l-1 936 191 0 1 -296 0 -106 33 101 97 301 188 0 1 -936 -184 0 0 319 0 115 -33 -110 -99 -324 -194 0zm544 0l-1 936 184 0 0 -249 1 -84 32 78 107 255 210 0 -218 -534 -3 -7 3 -7 197 -388 -209 0 -88 164 -32 60 0 -68 1 -156 -184 0z"/>
   <polygon class="fil1" points="2552,231 2446,339 2785,339 2897,231 "/>
   <polygon class="fil1" points="3242,231 3348,339 3009,339 2897,231 "/>
   <polygon class="fil2" points="2897,1423 2785,1312 2785,339 2897,231 "/>
   <polygon class="fil1" points="2897,1423 3009,1312 3009,339 2897,231 "/>
   <polygon class="fil2" points="2552,231 2663,119 3128,119 3242,231 "/>
   <polygon class="fil1" points="3132,444 3238,444 3238,927 3132,878 "/>
   <polygon class="fil2" points="3349,444 3349,973 3238,927 3238,444 "/>
   <polygon class="fil2" points="3020,989 3132,878 3238,927 3099,1065 "/>
   <polygon class="fil1" points="3178,1142 3099,1065 3238,927 3349,973 "/>
   <polygon class="fil2" points="2445,444 2556,444 2556,927 2445,973 "/>
   <polygon class="fil1" points="2556,444 2662,444 2662,878 2556,927 "/>
   <polygon class="fil2" points="2662,878 2774,989 2696,1065 2556,927 "/>
   <polygon class="fil1" points="2616,1142 2445,973 2556,927 2696,1065 "/>
   <path class="fil3" d="M2646 59l-275 275 0 666 525 515 524 -515 0 -666 -275 -275 -499 0zm-325 242l292 -292 9 -9 12 0 523 0 12 0 9 9 292 292 9 9 0 12 0 690 0 13 -9 8 -554 544 -20 20 -21 -20 -554 -544 -9 -8 0 -13 0 -690 0 -12 9 -9z"/>
   <g>
    <path class="fil4" d="M3934 2020l17 -132 18 132 -35 0zm1838 -278l-212 35 -20 4 0 -20c0,-9 0,-17 -1,-26 -2,-25 -6,-44 -11,-56 -3,-7 -7,-11 -9,-11 -1,0 0,0 0,0 -4,0 -7,2 -10,5 -3,4 -6,9 -8,15 -2,7 -3,15 -2,24 2,23 13,50 39,75 16,15 32,30 49,46 102,93 202,185 205,347 0,34 -8,71 -22,105 -15,37 -36,72 -59,96 -23,25 -53,42 -84,53 -40,15 -82,20 -115,20 -67,1 -119,-18 -160,-49l7 16 9 23 -25 0 -247 0 -11 0 -4 -10 -79 -189 0 182 0 17 -17 0 -201 0 -16 0 -1 0 -12 0 -4 0 -201 0 -12 0 -4 -12 -69 -211 0 206 0 17 -17 0 -222 0 -3 0 -17 0 -11 0 -180 0 -14 0 -3 -14 -30 -192 -31 0 -37 192 -3 14 -13 0 -208 0 -17 0 -1 0 -11 0 -9 0 -194 0 -17 0 0 -17 1 -485 -2 0 -140 0 -1 48 98 0 17 0 0 16 -1 165 0 17 -16 0 -97 0 -1 239 0 17 -17 0 -8 0 -159 0 -16 0 0 -17 0 -74c-8,13 -18,26 -29,37 -34,33 -80,54 -132,54 -52,0 -98,-21 -132,-54 -33,-33 -54,-78 -55,-128 -13,37 -36,73 -66,103 -46,47 -107,79 -170,79l-257 0 -17 0 -18 0 -406 0 -35 0 -187 0 -13 0 -3 -13 -63 -248 -1 244 0 17 -16 0 -12 0 -208 0 -17 0 1 -17 0 -114c-12,22 -28,43 -45,60 -49,49 -116,79 -190,79 -74,0 -141,-30 -190,-79 -48,-48 -78,-115 -78,-190l0 -227 -75 474 -2 14 -15 0 -200 0 -14 0 -2 -15 -19 -138 -18 138 -2 15 -15 0 -200 0 -14 0 -3 -14 -164 -971 -3 -19 20 0 223 0 14 0 2 14 18 111 14 -110 2 -15 15 0 103 0 108 0 15 0 2 15 13 110 18 -111 2 -14 15 0 223 0 20 0 -3 19 -9 57c3,-3 6,-7 9,-10 49,-48 116,-78 190,-78 74,0 141,30 190,78 18,19 34,40 46,63l1 -112 0 -17 16 0 275 0 0 0 1 0c48,0 109,18 157,57 30,24 55,57 70,97l1 -137 0 -17 16 0 217 0 17 0 -1 17 -1 729 190 0 2 -729 0 -17 17 0 11 0 263 0 1 0 0 0c68,0 130,34 175,84 45,50 73,116 73,181l0 0 0 0 0 0 0 152c10,-23 24,-44 41,-61 34,-34 80,-55 132,-55 52,0 98,21 132,55 11,11 21,24 29,37l0 -75 0 -17 17 0 8 0 318 0 0 -51 -121 0 -17 0 0 -17 0 -216 0 -17 16 0 12 0 482 0 9 0 7 0 7 0 257 0 15 0 2 14 109 674 1 -671 0 -17 17 0 224 0 13 0 3 12 69 227 0 -222 0 -17 17 0 202 0 16 0 0 0 12 0 5 0 201 0 17 0 0 17 -1 105 61 -113 5 -9 10 0 246 0 28 0 -13 24 -21 43c13,-14 28,-27 44,-38 40,-25 89,-40 146,-39 89,1 157,33 203,82 51,55 76,131 75,214l0 14 -14 2zm-548 348l-1 -7 17 -1 212 -11 18 -1 0 18c0,25 2,48 7,66 5,19 11,34 19,44 6,7 12,11 18,11 1,0 2,0 3,0 3,-1 6,-2 8,-5 5,-4 8,-10 10,-18 2,-9 2,-19 -1,-31 -4,-19 -16,-41 -40,-65 -20,-20 -41,-39 -63,-59 -29,-25 -58,-51 -87,-82 -8,-9 -17,-20 -26,-30 -7,-9 -13,-17 -18,-24 -38,-59 -56,-128 -55,-194 0,-22 3,-43 7,-64l-118 234 90 219zm-3722 -236c12,0 21,-1 27,-4 6,-5 9,-15 9,-37l-1 -102c0,-14 -15,-16 -34,-16l-1 159zm2264 -164l-87 0 -2 527 89 -527zm-304 -17l-1 737 181 0 4 -737 0 -17 17 0 120 0 0 -182 -460 0 1 182 121 0 17 0 0 17zm-343 102l-1 635 133 0 1 -239 0 -17 17 0 97 0 0 -131 -98 0 -17 0 1 -17 0 -81 0 -16 17 0 140 0 -1 -134 -289 0zm-42 482l0 -329 0 0 0 0 0 0c0,-42 -17,-80 -45,-108 -28,-28 -66,-45 -108,-45 -42,0 -80,17 -108,45 -28,28 -45,66 -45,108l0 329c0,43 17,81 45,109 28,27 66,44 108,44 42,0 80,-17 108,-44 28,-28 45,-66 45,-109l0 0 0 0 0 0zm-193 -325c0,-11 4,-21 12,-29 7,-7 17,-12 28,-12 11,0 21,5 28,12l0 0c8,8 12,18 12,29l0 322c0,11 -4,21 -12,28l0 0c-7,7 -17,12 -28,12 -11,0 -21,-5 -28,-12l0 0c-8,-7 -12,-17 -12,-28l0 -322zm-675 478l0 -190 -207 0 -17 0 0 -17 2 -729 -183 0 -2 936 407 0zm36 -936l-2 712 0 0 0 17 1 207 257 0c53,0 106,-28 146,-69 42,-42 70,-99 70,-152l1 -484 0 0 0 0 0 0c0,-56 -25,-114 -65,-158 -39,-44 -93,-73 -150,-73l0 0 -1 0 -257 0zm221 719c10,-1 18,-3 24,-7 6,-4 10,-13 10,-28l1 -446c0,-7 -1,-12 -3,-15 -1,-2 -3,-3 -8,-3l-23 0 -1 499zm42 21c-14,10 -34,13 -59,13l-17 0 0 -17 1 -532 0 -17 17 0 40 0c17,0 28,6 36,16 6,9 9,21 9,35l-2 446c0,28 -8,46 -25,56zm-711 196l0 0 -111 -398 -3 -12 11 -7c13,-8 28,-25 40,-46 10,-17 17,-37 17,-54l0 -210 0 -1 0 0c0,-73 -31,-125 -72,-159 -42,-34 -94,-49 -136,-49l-1 0 0 0 -258 0 -2 936 186 0 0 -352 0 -17 17 0 2 0 14 0 3 12 90 357 203 0zm-28 -224l1 -234c-2,4 -5,8 -7,12 -12,20 -27,38 -41,50l47 172zm-222 -308c-15,10 -35,10 -62,10l-17 0 0 -17 1 -193 0 -17 17 0c10,0 6,0 8,0 40,0 77,0 77,50l0 102c0,35 -7,54 -24,65zm-745 -283c-15,41 -21,93 -23,145l0 443c0,65 27,124 69,166 43,43 101,69 166,69 65,0 123,-26 166,-69 42,-42 68,-101 68,-165l0 -1 0 -487 0 0 0 0c0,-65 -26,-124 -68,-166 -43,-42 -101,-69 -166,-69 -65,0 -123,27 -166,69 -19,19 -34,41 -46,65zm194 106l0 1 0 476 0 0c0,5 2,9 5,12l0 0c4,4 8,6 13,6 5,0 9,-2 12,-6l0 0c4,-3 6,-7 6,-12l0 0 0 -476 0 -1c0,-4 -2,-9 -6,-12l0 0 0 0c-3,-3 -7,-5 -12,-5 -5,0 -9,1 -12,4 0,0 0,1 -1,1 -3,3 -5,8 -5,12zm-34 0c1,-14 6,-27 16,-36 0,0 0,-1 1,-1 9,-9 21,-14 35,-14 14,0 27,6 36,15l0 0c10,9 15,22 15,36l0 0 0 477 0 0c0,14 -5,27 -15,36l0 0 0 0 0 0c-9,10 -22,15 -36,15 -14,0 -27,-5 -36,-15l0 0 0 0 0 0c-10,-9 -15,-22 -16,-36l0 0 0 -477 0 0zm103 477c0,10 -7,17 -16,17l16 -17zm-696 232l33 -249 17 -126 17 126 33 249 171 0 147 -936 -189 0 -34 213 -19 116 -14 -117 -27 -212 -93 0 -88 0 -27 212 -15 117 -18 -116 -35 -213 -188 0 158 936 171 0zm3468 -936l-159 936 192 0 37 -192 2 -14 14 0 59 0 14 0 3 14 30 192 189 0 -152 -936 -229 0zm404 0l-1 936 191 0 1 -296 0 -106 33 101 97 301 188 0 1 -936 -184 0 0 319 0 115 -33 -110 -99 -324 -194 0zm544 0l-1 936 184 0 0 -249 1 -84 32 78 107 255 210 0 -218 -534 -3 -7 4 -7 196 -388 -209 0 -88 164 -32 60 1 -68 0 -156 -184 0zm788 267l179 -30c-2,-69 -24,-131 -65,-176 -41,-43 -101,-70 -179,-72 -51,0 -93,12 -127,35 -33,21 -58,51 -75,86 -18,35 -27,76 -28,117 -1,60 16,122 51,176 3,5 9,13 15,20 8,10 17,20 25,29 27,30 56,55 84,80 22,19 44,39 65,60 28,29 43,57 49,81 5,17 4,33 1,47 -4,14 -11,26 -19,34 -7,7 -15,12 -24,14 -4,1 -8,1 -11,1 -17,0 -32,-8 -44,-24 -11,-14 -20,-33 -26,-57 -4,-16 -7,-35 -7,-57l-177 10c7,84 29,168 76,226 38,49 95,80 176,79 30,0 68,-4 103,-17 27,-10 53,-24 72,-45 19,-21 38,-52 52,-86 12,-30 19,-62 19,-91 -3,-148 -98,-235 -194,-324 -17,-14 -33,-29 -49,-45 -33,-32 -48,-67 -50,-97 -1,-13 1,-26 4,-37 3,-11 9,-21 16,-28 9,-9 19,-15 31,-15 1,0 1,-1 2,-1 18,0 31,11 41,31 7,16 12,39 14,68 0,2 0,5 0,8z"/>
   </g>
  </g>
 </g>
</svg>
